<?xml version="1.0" standalone="yes"?>

<svg version="1.1" viewBox="0.0 0.0 633.0 544.0" fill="none" stroke="none" stroke-linecap="square" stroke-miterlimit="10" xmlns="http://www.w3.org/2000/svg" xmlns:xlink="http://www.w3.org/1999/xlink"><clipPath id="p.0"><path d="m0 0l633.0 0l0 544.0l-633.0 0l0 -544.0z" clip-rule="nonzero"></path></clipPath><g clip-path="url(#p.0)"><path fill="#000000" fill-opacity="0.0" d="m0 0l633.12335 0l0 544.3307l-633.12335 0z" fill-rule="nonzero"></path><path fill="#d9d2e9" d="m27.476337 521.4717l289.4277 -501.52927l289.42773 501.52927z" fill-rule="nonzero"></path><path stroke="#000000" stroke-width="2.0" stroke-linejoin="round" stroke-linecap="butt" d="m27.476337 521.4717l289.4277 -501.52927l289.42773 501.52927z" fill-rule="nonzero"></path><path fill="#000000" fill-opacity="0.0" d="m407.58447 190.11636l102.423035 178.43082l-37.170227 21.337616l-102.423035 -178.43083z" fill-rule="nonzero"></path><path fill="#000000" d="m395.02887 227.23325l14.906036 -8.556839l2.7691956 4.8242035q1.579071 2.750885 1.8232117 3.7097473q0.40020752 1.4818268 -0.23449707 2.9812012q-0.6133423 1.5051422 -2.402069 2.5319672q-1.3686523 0.78567505 -2.5914612 0.82102966q-1.2150574 0.04890442 -2.20047 -0.41235352q-0.9718628 -0.46903992 -1.5856323 -1.1616516q-0.8391113 -0.95962524 -2.0059204 -2.9923096l-1.1278992 -1.9649048l-5.623657 3.2282562l-1.7268372 -3.0083466zm14.112427 -4.1016083l-4.2279053 2.4270325l0.94122314 1.6396942q1.0267639 1.7887421 1.5993958 2.2527466q0.57263184 0.46401978 1.2684937 0.5149689q0.6958313 0.050964355 1.346283 -0.32243347q0.81307983 -0.46673584 1.0693054 -1.2444q0.2562256 -0.7776642 -0.028320312 -1.5872192q-0.20272827 -0.60427856 -1.1361694 -2.230423l-0.8323059 -1.4499664zm-2.0749817 25.071991l1.6125488 -0.9256897q-1.1959534 -0.106170654 -2.2496338 -0.78048706q-1.0536804 -0.6743164 -1.6604004 -1.7312927q-0.6300659 -1.0976562 -0.6536255 -2.2371826q-0.0022277832 -1.1337738 0.6259155 -2.0168304q0.6494446 -0.87727356 2.180725 -1.7563019l6.8296814 -3.920578l1.6412964 2.8592834l-4.959656 2.8470917q-2.2765808 1.3068695 -2.7059326 1.7515259q-0.42160034 0.45822144 -0.48635864 1.0358887q-0.05697632 0.59121704 0.31637573 1.2416687q0.42004395 0.73176575 1.13974 1.0753326q0.7409973 0.34931946 1.4617004 0.22387695q0.7207031 -0.12545776 3.0379333 -1.455658l4.5531006 -2.6137238l1.6335144 2.8457336l-10.80011 6.199814l-1.5168152 -2.6424713zm8.854034 15.424576l-1.6412964 -2.8592834l5.5152283 -3.1660156q1.7480774 -1.003479 2.140564 -1.4810181q0.41381836 -0.47177124 0.45724487 -1.0552216q0.051208496 -0.56988525 -0.27548218 -1.1390381q-0.42782593 -0.74531555 -1.1766357 -1.1082001q-0.7409973 -0.34931946 -1.5429993 -0.17720032q-0.78845215 0.16435242 -2.5907288 1.1989594l-4.8919067 2.808197l-1.6412964 -2.8592987l10.80011 -6.199814l1.5246277 2.656021l-1.5854492 0.910141q2.6383362 0.35916138 3.8673706 2.5002441q0.5444946 0.9485779 0.6355591 1.9232483q0.11239624 0.98043823 -0.18273926 1.6903381q-0.2951355 0.7099304 -0.8871155 1.2479248q-0.5706482 0.5437927 -1.8173523 1.2594604l-6.7077026 3.8505554zm15.305878 1.6496887l-2.2765503 1.3068542l-1.1201172 -1.951355l-4.349884 2.4970398q-1.3279724 0.7623291 -1.5136719 0.9410095q-0.18569946 0.17868042 -0.2258606 0.45394897q-0.018829346 0.2810669 0.14450073 0.5656433q0.22558594 0.39297485 0.93222046 0.99624634l-2.0687866 1.5119019q-1.0092773 -0.7538452 -1.732666 -2.0141296q-0.4433899 -0.7723999 -0.5437317 -1.5435486q-0.09259033 -0.7575989 0.14282227 -1.289093q0.25671387 -0.5257263 0.8991394 -1.0386353q0.44692993 -0.38269043 1.9511108 -1.2461548l4.7157288 -2.7070618l-0.7545471 -1.3144531l2.2765808 -1.3068848l0.7545166 1.3144836l2.1410522 -1.2290955l3.315857 1.9160461l-3.8078308 2.1858826l1.1201172 1.951355zm-5.5845337 15.285858l1.6125488 -0.9256897q-1.1959534 -0.106170654 -2.2496338 -0.78048706q-1.0536499 -0.6743164 -1.6604004 -1.7312927q-0.6300659 -1.0976562 -0.6536255 -2.2371826q-0.0021972656 -1.1337585 0.6259155 -2.0168152q0.6494751 -0.8772888 2.180725 -1.7563171l6.8296814 -3.9205933l1.6412964 2.859314l-4.959656 2.8470764q-2.2765503 1.3068542 -2.7059326 1.7515259q-0.42160034 0.45822144 -0.48635864 1.0358887q-0.05697632 0.59121704 0.31640625 1.2416687q0.42004395 0.731781 1.1397095 1.0753174q0.74102783 0.34933472 1.461731 0.22387695q0.7207031 -0.12545776 3.0379028 -1.455658l4.553131 -2.6137085l1.6335144 2.8457336l-10.80011 6.199829l-1.5168457 -2.6424866zm11.950775 3.431549l-1.0249939 -2.8527527q1.8208313 -0.46871948 3.172882 0.16043091q1.373352 0.6349182 2.5868225 2.7489014q1.0968018 1.9107056 1.1727905 3.1102295q0.089538574 1.191742 -0.39730835 1.9756775q-0.47329712 0.77615356 -2.329773 1.8418579l-3.3490906 1.8865356q-1.4228516 0.81677246 -2.0226135 1.3412476q-0.59976196 0.5244446 -1.1543884 1.34729l-1.6257324 -2.8322144q0.22235107 -0.27175903 0.68460083 -0.7532959q0.2185669 -0.21557617 0.2765503 -0.30288696q-1.1246948 -0.3272705 -1.9728699 -0.95739746q-0.82681274 -0.62435913 -1.3635254 -1.5593872q-0.9567871 -1.6668091 -0.6011658 -3.150116q0.35565186 -1.4833374 1.737854 -2.276764q0.90789795 -0.5212097 1.8750305 -0.4998474q0.96710205 0.021362305 1.797699 0.58950806q0.8383789 0.58169556 1.9707947 1.8954163q1.5306702 1.7877502 2.299286 2.3734741l0.28457642 -0.1633606q0.8265991 -0.47451782 0.93200684 -1.0755005q0.11898804 -0.60879517 -0.52664185 -1.733551q-0.4433899 -0.7723999 -0.9904175 -1.0349121q-0.5392761 -0.24893188 -1.432373 -0.07858276zm-0.12362671 5.151642q-0.5086365 -0.4467163 -1.4506226 -1.491394q-0.9206848 -1.0389404 -1.3746033 -1.264801q-0.72546387 -0.3222351 -1.3352661 0.027832031q-0.5962219 0.34228516 -0.77316284 1.0383911q-0.17694092 0.69610596 0.21975708 1.387207q0.4433899 0.7724304 1.3414917 1.1757202q0.6963501 0.30288696 1.3452759 0.14657593q0.4281006 -0.101623535 1.4579773 -0.6928406l0.56915283 -0.32669067zm11.040527 13.646942l-2.1193542 -2.5308228q0.7623596 -0.61779785 0.88687134 -1.3739014q0.14581299 -0.7503052 -0.31311035 -1.5498352q-0.6145325 -1.0705261 -1.7254333 -1.279602q-1.0895691 -0.20327759 -2.8105469 0.78463745q-1.9242249 1.1046143 -2.3581238 2.20047q-0.41259766 1.101654 0.20968628 2.18573q0.46673584 0.81307983 1.223053 1.0635376q0.7640991 0.26400757 2.0054932 -0.17837524l1.1358948 3.0773315q-2.1731262 0.67099 -3.8779907 -0.007843018q-1.6970825 -0.6653137 -2.894989 -2.7521667q-1.3534851 -2.3579102 -0.6718445 -4.622925q0.6951599 -2.272766 3.337616 -3.7896729q2.6695251 -1.5324402 4.969116 -0.9788208q2.299591 0.5536499 3.6841736 2.9657593q1.1356812 1.9784546 0.94314575 3.6203613q-0.1847229 1.6554871 -1.6236572 3.1661377zm5.9002686 -0.51794434l2.6424255 -1.5168762l1.6412964 2.8592834l-2.6424255 1.5168762l-1.6412964 -2.8592834zm-12.263611 7.0399475l10.80011 -6.199829l1.6412964 2.859314l-10.80014 6.1997986l-1.6412659 -2.8592834zm8.502045 1.9431152q1.4228516 -0.81677246 3.1475525 -0.8880005q1.7324829 -0.057678223 3.176117 0.8251648q1.4436035 0.88287354 2.3536987 2.4683533q1.407959 2.4527588 0.7034607 4.9290466q-0.683136 2.4820557 -3.1087341 3.8745117q-2.4527283 1.4079895 -4.975403 0.74819946q-2.5226746 -0.65979004 -3.899475 -3.0583496q-0.8478699 -1.4770813 -0.9617615 -3.2133484q-0.0925293 -1.7305298 0.7903137 -3.1741943q0.9042053 -1.4378662 2.774231 -2.511383zm1.5175781 3.0204163q-1.5990295 0.9179077 -2.0171204 2.1668396q-0.41812134 1.2489319 0.22750854 2.3736877q0.6378479 1.111206 1.9271545 1.3799744q1.2893372 0.26879883 2.9154358 -0.66467285q1.5854797 -0.91012573 2.0035706 -2.1590881q0.41812134 -1.2489319 -0.21972656 -2.3601074q-0.6456299 -1.1247559 -1.9349365 -1.3935547q-1.2893372 -0.2687683 -2.901886 0.6569214zm6.237732 23.358368l-1.6412964 -2.859314l5.5152283 -3.1660156q1.7480774 -1.003479 2.140564 -1.4810181q0.41381836 -0.47177124 0.45724487 -1.0552063q0.051208496 -0.5699158 -0.27548218 -1.1390381q-0.42782593 -0.7453308 -1.1766357 -1.1082153q-0.7409973 -0.34933472 -1.5429993 -0.17718506q-0.78845215 0.16433716 -2.5907288 1.1989441l-4.8919067 2.808197l-1.6412964 -2.8592834l10.80011 -6.199829l1.5246277 2.6560364l-1.5854797 0.91012573q2.6383667 0.35916138 3.8674011 2.5002441q0.5444946 0.9485779 0.6355591 1.9232483q0.11239624 0.98043823 -0.18273926 1.6903381q-0.2951355 0.7099304 -0.8871155 1.2479248q-0.5706482 0.5437927 -1.8173523 1.2594604l-6.7077026 3.850586zm8.694458 7.17453l1.1456909 3.1257935q-1.8772888 0.33898926 -3.3884277 -0.3789978q-1.4898071 -0.71221924 -2.508789 -2.4874268q-1.617981 -2.818634 -0.5451355 -5.2181396q0.8625488 -1.9184265 3.0984802 -3.2019653q2.683075 -1.5402222 5.0019836 -1.015686q2.3402405 0.53027344 3.569275 2.6713562q1.3845825 2.4121094 0.5789795 4.7122498q-0.7842407 2.3059082 -4.094696 4.134186l-4.1071167 -7.154999q-1.2582397 0.7583313 -1.5817261 1.8268433q-0.32351685 1.068512 0.23654175 2.0441895q0.38894653 0.67755127 1.0115051 0.91470337q0.6303711 0.25073242 1.583435 0.027893066zm2.9797058 -1.4942932q1.2098083 -0.74853516 1.4966431 -1.723938q0.30041504 -0.9831848 -0.19741821 -1.8504639q-0.53671265 -0.9350281 -1.5643005 -1.1558838q-1.0275879 -0.22085571 -2.1852112 0.46166992l2.4502869 4.2686157zm-0.87002563 6.0169983l2.0962524 2.6161194q-0.7390442 0.6584778 -0.85375977 1.4629822q-0.106903076 0.8180847 0.46868896 1.8208618q0.6378479 1.111206 1.3633118 1.4334106q0.5023804 0.21609497 0.99020386 -0.063964844q0.32522583 -0.18667603 0.4118042 -0.5066223q0.078826904 -0.3335266 -0.17285156 -1.1799622q-1.2247009 -3.8911438 -1.1167603 -5.178253q0.1282959 -1.7851868 1.686676 -2.679779q1.4093018 -0.809021 2.995697 -0.24234009q1.5999756 0.5588989 2.9378967 2.889679q1.2679138 2.2088318 1.1506958 3.6994324q-0.09591675 1.4963989 -1.2718506 2.7119446l-2.049347 -2.4088745q0.5435486 -0.52822876 0.5887451 -1.2027588q0.058746338 -0.682312 -0.45465088 -1.5766907q-0.6456299 -1.1247253 -1.2373352 -1.4336548q-0.41705322 -0.19299316 -0.76937866 0.009246826q-0.29812622 0.17114258 -0.35159302 0.5801697q-0.05899048 0.55636597 0.71936035 3.136322q0.7918701 2.5722046 0.5677185 3.907959q-0.24545288 1.3299866 -1.6141052 2.1156616q-1.4770508 0.8479309 -3.263214 0.21575928q-1.7783813 -0.6186218 -3.1707458 -3.044281q-1.2679138 -2.2088318 -1.1125488 -4.009613q0.15539551 -1.8007507 1.4610901 -3.072754z" fill-rule="nonzero"></path><path fill="#d9ead3" d="m27.476322 521.1615l255.81674 -443.484l255.81674 443.484z" fill-rule="nonzero"></path><path stroke="#000000" stroke-width="2.0" stroke-linejoin="round" stroke-linecap="butt" d="m27.476322 521.1615l255.81674 -443.484l255.81674 443.484z" fill-rule="nonzero"></path><path fill="#000000" fill-opacity="0.0" d="m206.72266 473.05383l153.14081 0l0 37.96176l-153.14081 0z" fill-rule="nonzero"></path><path fill="#000000" d="m233.66025 482.7847l3.46875 0l0 9.3125q0 2.21875 0.140625 2.875q0.21875 1.046875 1.046875 1.6875q0.84375 0.640625 2.296875 0.640625q1.484375 0 2.234375 -0.59375q0.75 -0.609375 0.890625 -1.484375q0.15625 -0.890625 0.15625 -2.921875l0 -9.515625l3.46875 0l0 9.03125q0 3.09375 -0.28125 4.375q-0.28125 1.265625 -1.046875 2.15625q-0.75 0.875 -2.015625 1.40625q-1.265625 0.515625 -3.296875 0.515625q-2.46875 0 -3.734375 -0.5625q-1.265625 -0.578125 -2.015625 -1.484375q-0.734375 -0.90625 -0.96875 -1.90625q-0.34375 -1.484375 -0.34375 -4.359375l0 -9.171875zm16.175781 13.640625l3.3125 -0.515625q0.203125 0.96875 0.84375 1.46875q0.65625 0.5 1.8125 0.5q1.28125 0 1.921875 -0.46875q0.4375 -0.328125 0.4375 -0.890625q0 -0.375 -0.234375 -0.609375q-0.25 -0.234375 -1.109375 -0.4375q-3.984375 -0.875 -5.046875 -1.609375q-1.484375 -1.0 -1.484375 -2.796875q0 -1.625 1.28125 -2.71875q1.28125 -1.109375 3.96875 -1.109375q2.546875 0 3.78125 0.84375q1.25 0.828125 1.71875 2.453125l-3.109375 0.578125q-0.1875 -0.734375 -0.75 -1.109375q-0.5625 -0.390625 -1.59375 -0.390625q-1.296875 0 -1.859375 0.359375q-0.375 0.265625 -0.375 0.671875q0 0.34375 0.328125 0.59375q0.453125 0.328125 3.078125 0.9375q2.625 0.59375 3.671875 1.453125q1.03125 0.875 1.03125 2.453125q0 1.703125 -1.4375 2.9375q-1.421875 1.234375 -4.21875 1.234375q-2.546875 0 -4.03125 -1.03125q-1.484375 -1.03125 -1.9375 -2.796875zm22.707031 3.546875l0 -1.859375q-0.6875 0.984375 -1.796875 1.5625q-1.109375 0.578125 -2.328125 0.578125q-1.265625 0 -2.265625 -0.546875q-0.984375 -0.5625 -1.4375 -1.546875q-0.4375 -1.0 -0.4375 -2.765625l0 -7.875l3.296875 0l0 5.71875q0 2.625 0.171875 3.21875q0.1875 0.59375 0.65625 0.9375q0.484375 0.34375 1.234375 0.34375q0.84375 0 1.5 -0.453125q0.671875 -0.46875 0.921875 -1.15625q0.25 -0.6875 0.25 -3.359375l0 -5.25l3.28125 0l0 12.453125l-3.046875 0zm8.925781 -8.65625l-2.984375 -0.53125q0.5 -1.8125 1.71875 -2.671875q1.234375 -0.875 3.671875 -0.875q2.203125 0 3.28125 0.53125q1.078125 0.515625 1.515625 1.328125q0.4375 0.796875 0.4375 2.9375l-0.03125 3.84375q0 1.640625 0.15625 2.421875q0.15625 0.78125 0.59375 1.671875l-3.265625 0q-0.125 -0.328125 -0.3125 -0.96875q-0.078125 -0.296875 -0.125 -0.390625q-0.84375 0.8125 -1.8125 1.234375q-0.953125 0.40625 -2.03125 0.40625q-1.921875 0 -3.03125 -1.046875q-1.109375 -1.046875 -1.109375 -2.640625q0 -1.046875 0.5 -1.875q0.5 -0.828125 1.40625 -1.265625q0.921875 -0.4375 2.625 -0.765625q2.3125 -0.4375 3.203125 -0.8125l0 -0.328125q0 -0.953125 -0.46875 -1.34375q-0.46875 -0.40625 -1.765625 -0.40625q-0.890625 0 -1.390625 0.34375q-0.484375 0.34375 -0.78125 1.203125zm4.40625 2.671875q-0.640625 0.21875 -2.015625 0.515625q-1.359375 0.28125 -1.78125 0.5625q-0.640625 0.46875 -0.640625 1.171875q0 0.6875 0.515625 1.1875q0.515625 0.5 1.3125 0.5q0.890625 0 1.6875 -0.578125q0.609375 -0.453125 0.796875 -1.09375q0.125 -0.421875 0.125 -1.609375l0 -0.65625zm9.628906 5.984375l-3.296875 0l0 -12.453125l3.0625 0l0 1.78125q0.78125 -1.265625 1.40625 -1.65625q0.640625 -0.40625 1.4375 -0.40625q1.125 0 2.15625 0.625l-1.015625 2.875q-0.828125 -0.546875 -1.546875 -0.546875q-0.6875 0 -1.171875 0.390625q-0.484375 0.375 -0.765625 1.375q-0.265625 1.0 -0.265625 4.171875l0 3.84375zm6.1835938 -14.140625l0 -3.046875l3.296875 0l0 3.046875l-3.296875 0zm0 14.140625l0 -12.453125l3.296875 0l0 12.453125l-3.296875 0zm5.9179688 -6.40625q0 -1.640625 0.796875 -3.171875q0.8125 -1.53125 2.296875 -2.34375q1.484375 -0.8125 3.3125 -0.8125q2.828125 0 4.625 1.84375q1.8125 1.828125 1.8125 4.625q0 2.828125 -1.828125 4.6875q-1.828125 1.859375 -4.59375 1.859375q-1.703125 0 -3.265625 -0.765625q-1.546875 -0.78125 -2.359375 -2.265625q-0.796875 -1.5 -0.796875 -3.65625zm3.375 0.1875q0 1.84375 0.875 2.828125q0.875 0.984375 2.171875 0.984375q1.28125 0 2.15625 -0.984375q0.875 -0.984375 0.875 -2.859375q0 -1.828125 -0.875 -2.8125q-0.875 -0.984375 -2.15625 -0.984375q-1.296875 0 -2.171875 0.984375q-0.875 0.984375 -0.875 2.84375zm10.878906 2.671875l3.3125 -0.515625q0.203125 0.96875 0.84375 1.46875q0.65625 0.5 1.8125 0.5q1.28125 0 1.921875 -0.46875q0.4375 -0.328125 0.4375 -0.890625q0 -0.375 -0.234375 -0.609375q-0.25 -0.234375 -1.109375 -0.4375q-3.984375 -0.875 -5.046875 -1.609375q-1.484375 -1.0 -1.484375 -2.796875q0 -1.625 1.28125 -2.71875q1.28125 -1.109375 3.96875 -1.109375q2.546875 0 3.78125 0.84375q1.25 0.828125 1.71875 2.453125l-3.109375 0.578125q-0.1875 -0.734375 -0.75 -1.109375q-0.5625 -0.390625 -1.59375 -0.390625q-1.296875 0 -1.859375 0.359375q-0.375 0.265625 -0.375 0.671875q0 0.34375 0.328125 0.59375q0.453125 0.328125 3.078125 0.9375q2.625 0.59375 3.671875 1.453125q1.03125 0.875 1.03125 2.453125q0 1.703125 -1.4375 2.9375q-1.421875 1.234375 -4.21875 1.234375q-2.546875 0 -4.03125 -1.03125q-1.484375 -1.03125 -1.9375 -2.796875z" fill-rule="nonzero"></path><path fill="#cfe2f3" d="m60.364502 462.90317l222.89108 -385.29218l222.89108 385.29218z" fill-rule="nonzero"></path><path stroke="#000000" stroke-width="2.0" stroke-linejoin="round" stroke-linecap="butt" d="m60.364502 462.90317l222.89108 -385.29218l222.89108 385.29218z" fill-rule="nonzero"></path><path fill="#000000" fill-opacity="0.0" d="m117.34755 363.38055l112.721085 -198.41446l49.18811 27.908157l-112.7211 198.41447z" fill-rule="nonzero"></path><path fill="#000000" d="m182.69006 321.67725l-14.948959 -8.481689l6.2902985 -11.072327l2.5277252 1.4341736l-4.5768585 8.056305l3.3159485 1.8813782l4.2604218 -7.499298l2.514145 1.4264832l-4.2604218 7.499298l4.076996 2.3131714l4.7389374 -8.341614l2.514145 1.4264832l-6.4523773 11.3576355zm16.030731 -18.63321l-5.449585 -3.0919495q0.41741943 0.9733887 0.36018372 2.054718q-0.04951477 1.0677795 -0.6052246 2.045929q-1.0419464 1.8340759 -3.1073303 2.2431335q-2.4198914 0.4953308 -5.1922455 -1.0776062q-2.6092682 -1.4804688 -3.3283234 -3.631012q-0.7113342 -2.164154 0.40008545 -4.1204834q0.60972595 -1.0732727 1.5194397 -1.5990906q0.90971375 -0.52578735 2.181137 -0.6128235l-1.6036072 -0.9098511l1.5050354 -2.6492004l14.948959 8.481659l-1.6285248 2.8665771zm-9.608444 -5.5773315q-1.6579742 -0.94070435 -2.8592834 -0.72406006q-1.201294 0.21664429 -1.7801666 1.2355652q-0.59428406 1.0461121 -0.15893555 2.20932q0.43536377 1.1632385 2.229248 2.1810303q1.7802734 1.0101013 2.9466858 0.79159546q1.1741333 -0.23205566 1.7298279 -1.2102356q0.5634308 -0.99176025 0.10458374 -2.2401428q-0.45884705 -1.2484131 -2.2119598 -2.2430725zm12.763107 -9.560089l-1.6172028 -0.917572q0.51657104 1.0835571 0.47140503 2.333435q-0.045150757 1.2498779 -0.647171 2.3095398q-0.62516785 1.1004639 -1.5947876 1.7000732q-0.9754791 0.5783081 -2.0554657 0.48651123q-1.0858765 -0.11306763 -2.6215363 -0.984375l-6.8493347 -3.886139l1.6285248 -2.8665771l4.9739227 2.8220825q2.2831116 1.2953796 2.88443 1.4389343q0.6090393 0.12997437 1.1395569 -0.107940674q0.5382538 -0.25152588 0.9087219 -0.903656q0.41677856 -0.73361206 0.34683228 -1.527832q-0.07582092 -0.8154907 -0.55029297 -1.3721313q-0.4744568 -0.5566406 -2.7983398 -1.8751526l-4.5662384 -2.5907898l1.6208191 -2.8529663l10.831192 6.145355l-1.5050354 2.6492004zm-9.10939 -12.592377l-2.6500397 -1.5035706l1.6285248 -2.8666077l2.650055 1.5035706l-1.62854 2.8666077zm12.29892 6.9780884l-10.831207 -6.145355l1.62854 -2.8665771l10.831192 6.145355l-1.6285248 2.8665771zm-7.583786 -11.861542l1.5204773 -2.676361l1.5900269 0.9021301q-0.52211 -0.97888184 -0.5232544 -2.1472473q-0.0070343018 -1.1896667 0.6027069 -2.2629395q1.0728302 -1.8883972 3.2950745 -2.3521729q2.2299652 -0.47735596 4.8664246 1.0184937q2.717987 1.5421448 3.4700928 3.7294006q0.7462311 2.165985 -0.31887817 4.0408325q-0.5093994 0.89663696 -1.2795105 1.429779q-0.78370667 0.52545166 -2.0952454 0.84124756l5.4495697 3.0919495l-1.6285248 2.8665771l-14.948959 -8.481689zm6.84523 0.12918091q1.8210449 1.0332336 3.1134644 0.8143921q1.2788086 -0.2265625 1.8731079 -1.2726746q0.5634308 -0.99176025 0.13981628 -2.1123657q-0.4236145 -1.120636 -2.2446747 -2.1538696q-1.712326 -0.9715271 -2.9213562 -0.7413025q-1.2149048 0.20895386 -1.7860413 1.2142944q-0.5942993 1.0460815 -0.17253113 2.2015991q0.40818787 1.1477966 1.9982147 2.0499268zm5.331482 -9.32132q-1.4269409 -0.80963135 -2.3651428 -2.2581482q-0.9304657 -1.4620972 -0.9039154 -3.1536865q0.026535034 -1.6915894 0.9295654 -3.2811127q1.3969879 -2.4589996 3.8881836 -3.1115112q2.4853363 -0.6737976 4.917938 0.70640564q2.4597778 1.3956299 3.1739655 3.90271q0.71417236 2.50708 -0.65193176 4.9117737q-0.8412781 1.480835 -2.279007 2.4615784q-1.4435883 0.95944214 -3.1359863 0.9333801q-1.6982574 -0.047332764 -3.5736694 -1.1113892zm1.8302002 -2.84198q1.6036072 0.9098511 2.8919983 0.63479614q1.2883759 -0.2750244 1.9289856 -1.4026184q0.6328888 -1.1140442 0.2089386 -2.3605957q-0.4239502 -1.2465668 -2.0547485 -2.1718445q-1.5900269 -0.9021454 -2.8784027 -0.627121q-1.2883911 0.27503967 -1.9212799 1.3890533q-0.6405945 1.1276245 -0.21664429 2.374176q0.4239502 1.246582 2.041153 2.164154zm7.697647 -8.140533l1.1877747 -3.134613q0.94291687 0.30145264 1.6942444 -0.00881958q0.7590332 -0.3238678 1.3301849 -1.3292084q0.6328888 -1.1140289 0.541626 -1.902359q-0.0692749 -0.5423126 -0.55851746 -0.8199005q-0.32615662 -0.1850586 -0.6457825 -0.09692383q-0.3273468 0.10169983 -0.9285126 0.74868774q-2.7291565 3.032547 -3.8927307 3.593979q-1.6029816 0.79714966 -3.1658173 -0.08956909q-1.4133606 -0.80189514 -1.7317657 -2.4556732q-0.33200073 -1.6614838 0.9955292 -3.9982147q1.2580566 -2.2144623 2.6016388 -2.8713684q1.3377228 -0.67819214 2.9826202 -0.283844l-1.033081 2.9888306q-0.7313385 -0.19937134 -1.3353577 0.104660034q-0.6175995 0.29632568 -1.1269989 1.1929779q-0.64060974 1.1276093 -0.605896 1.7940369q0.045791626 0.45713806 0.3991394 0.6576233q0.2989807 0.16963196 0.6784973 0.0077056885q0.5092163 -0.23207092 2.3358765 -2.213745q1.8130646 -1.9893951 3.0776367 -2.4755554q1.2704315 -0.464859 2.6430206 0.31391907q1.4812927 0.8404541 1.8448334 2.6994781q0.3712616 1.8454285 -1.0102844 4.2772675q-1.2580719 2.2144775 -2.8882294 2.9962158q-1.6301575 0.7817383 -3.3896484 0.30441284z" fill-rule="nonzero"></path><path fill="#fce5cd" d="m135.85268 461.7224l184.65761 -319.292l184.65762 319.292z" fill-rule="nonzero"></path><path stroke="#000000" stroke-width="2.0" stroke-linejoin="round" stroke-linecap="butt" d="m135.85268 461.7224l184.65761 -319.292l184.65762 319.292z" fill-rule="nonzero"></path><path fill="#000000" fill-opacity="0.0" d="m355.2548 221.57242l96.06915 162.84225l-40.359955 23.80304l-96.06912 -162.84227z" fill-rule="nonzero"></path><path fill="#000000" d="m353.4418 280.22827l14.804565 -8.731262l6.4705505 10.967957l-2.503296 1.4763794l-4.7080383 -7.980377l-3.2839355 1.9367676l4.382538 7.428589l-2.4898682 1.4684448l-4.3825073 -7.4286194l-4.037628 2.381256l4.874756 8.2630005l-2.4898376 1.4684143l-6.6372986 -11.250549zm9.856689 16.707611l8.17807 -10.646088l1.7625122 2.9876099l-4.2867737 5.2492065l-1.4889832 1.6581726q0.83480835 -0.18395996 1.103302 -0.25161743q0.52352905 -0.12738037 1.0763855 -0.23574829l6.6844788 -1.1849976l1.7228394 2.920288l-13.243347 2.0601196l-1.5084839 -2.5569458zm12.129974 12.750244l1.1827393 3.111847q-1.8732605 0.36105347 -3.3929138 -0.33901978q-1.49823 -0.69454956 -2.5382996 -2.4575195q-1.6513672 -2.7991638 -0.6069946 -5.210968q0.8397827 -1.9283447 3.0604858 -3.238037q2.6648254 -1.5716248 4.989929 -1.0744934q2.346527 0.502655 3.6009521 2.6289368q1.413208 2.3954773 0.6348877 4.704773q-0.756897 2.3148193 -4.045685 4.181885l-4.1919556 -7.1056213q-1.2492371 0.7730408 -1.5600586 1.8452148q-0.31082153 1.0721741 0.26080322 2.0411072q0.39697266 0.6728821 1.0223389 0.90267944q0.6333313 0.2432251 1.5837708 0.009216309zm2.961975 -1.5292053q1.2008972 -0.7626648 1.4761963 -1.741333q0.28875732 -0.9866028 -0.21936035 -1.8478699q-0.54782104 -0.92858887 -1.5780334 -1.1372986q-1.0302124 -0.20870972 -2.179718 0.48736572l2.5009155 4.2391357zm2.489746 18.580872l-1.6752014 -2.839569l5.4776917 -3.2305603q1.7361755 -1.0239563 2.1229858 -1.5060425q0.40820312 -0.4765625 0.44473267 -1.0604553q0.04446411 -0.57040405 -0.28900146 -1.1356201q-0.43667603 -0.74017334 -1.1897583 -1.0941772q-0.7451477 -0.34054565 -1.545105 -0.15899658q-0.78652954 0.1736145 -2.576538 1.2293091l-4.8585815 2.8654175l-1.6752014 -2.8395386l10.726593 -6.3262024l1.5560913 2.6376953l-1.574646 0.9286804q2.6426086 0.32803345 3.8970337 2.4543457q0.5557556 0.9420166 0.6583557 1.9154968q0.12402344 0.9789734 -0.16268921 1.6922607q-0.28671265 0.71328735 -0.87231445 1.2582092q-0.564209 0.55041504 -1.8023987 1.2806702l-6.6620483 3.9290771zm15.325439 1.4691162l-2.2610474 1.3334961l-1.14328 -1.9378967l-4.3202515 2.547943q-1.3189392 0.77789307 -1.502533 0.9587097q-0.18356323 0.18081665 -0.22045898 0.45654297q-0.01550293 0.28125 0.1512146 0.5638428q0.23025513 0.3902893 0.94403076 0.98516846l-2.0508728 1.5360413q-1.0181885 -0.7418518 -1.7565308 -1.9934082q-0.45254517 -0.76708984 -0.56204224 -1.5369568q-0.1015625 -0.7564087 0.12753296 -1.2905884q0.25048828 -0.5286865 0.8868408 -1.0491028q0.4423828 -0.38787842 1.9363098 -1.2689514l4.6836243 -2.7622375l-0.7701111 -1.3053894l2.2610474 -1.3335266l0.7701111 1.3053894l2.1264954 -1.2541199l3.338562 1.876709l-3.7818909 2.2304382l1.1432495 1.9378967zm-4.4344177 4.3839417q1.413147 -0.83343506 3.137024 -0.9249878q1.731781 -0.078063965 3.1858826 0.7876587q1.4541016 0.86572266 2.3829956 2.4402466q1.4370117 2.4358215 0.76190186 4.9200745q-0.6536865 2.4897766 -3.0628052 3.9105835q-2.4360046 1.4367065 -4.9664917 0.8067322q-2.530487 -0.62997437 -3.9357605 -3.0119934q-0.86538696 -1.4668579 -0.9998474 -3.2015686q-0.11306763 -1.729187 0.752655 -3.1830444q0.887146 -1.4483337 2.7444458 -2.5437012zm1.5533752 3.0020752q-1.5881042 0.9366455 -1.991394 2.1903381q-0.4033203 1.2536926 0.25564575 2.3706665q0.6510315 1.1035156 1.9435425 1.3570862q1.292511 0.25357056 2.9075317 -0.6989441q1.5746765 -0.9286804 1.9779663 -2.182373q0.4032898 -1.2536926 -0.24771118 -2.3572083q-0.65896606 -1.1170044 -1.951477 -1.3705444q-1.292511 -0.25357056 -2.894104 0.690979zm3.2263489 10.727203l2.1272888 2.5910645q-0.7312317 0.66708374 -0.83639526 1.4728394q-0.097229004 0.81921387 0.4902954 1.815094q0.651001 1.1035156 1.3802795 1.4171448q0.50494385 0.21014404 0.9894409 -0.07562256q0.32302856 -0.19049072 0.40582275 -0.5114136q0.0748291 -0.3343811 -0.18685913 -1.1777344q-1.2708435 -3.8762207 -1.1781616 -5.164398q0.1071167 -1.7864685 1.6548767 -2.6992798q1.3996887 -0.8255005 2.9928284 -0.2775879q1.6065979 0.5399475 2.972168 2.8546448q1.2940979 2.1936035 1.1945496 3.6853943q-0.07815552 1.4972839 -1.239685 2.7265015l-2.0779114 -2.384369q0.5372925 -0.5345459 0.5744934 -1.2095337q0.050628662 -0.68289185 -0.47335815 -1.571106q-0.65896606 -1.1169739 -1.2543335 -1.4188843q-0.41934204 -0.18804932 -0.7692566 0.018310547q-0.29611206 0.17462158 -0.34472656 0.58425903q-0.052368164 0.5569458 0.75653076 3.1273804q0.8223877 2.5625 0.6141052 3.9007263q-0.22970581 1.3327026 -1.5890198 2.1343994q-1.4670105 0.86520386 -3.2606506 0.2541504q-1.7857361 -0.5975647 -3.2068787 -3.0065002q-1.2940979 -2.193573 -1.1600647 -3.9959412q0.1340332 -1.8023376 1.4246216 -3.0895386z" fill-rule="nonzero"></path><path fill="#fff2cc" d="m135.83026 461.7112l149.29065 -258.13892l149.29068 258.13892z" fill-rule="nonzero"></path><path stroke="#000000" stroke-width="2.0" stroke-linejoin="round" stroke-linecap="butt" d="m135.83026 461.7112l149.29065 -258.13892l149.29068 258.13892z" fill-rule="nonzero"></path><path fill="#000000" fill-opacity="0.0" d="m309.4367 269.37262l77.66931 131.65356l-32.629913 19.24408l-77.66931 -131.65353z" fill-rule="nonzero"></path><path fill="#000000" d="m301.61298 309.00906l14.804565 -8.731262l2.8263855 4.790924q1.6116943 2.731903 1.8671875 3.6877441q0.41778564 1.4768982 -0.19909668 2.983551q-0.59552 1.5121765 -2.3720398 2.559906q-1.3593445 0.8016968 -2.5817566 0.85147095q-1.214447 0.063201904 -2.2053528 -0.38638306q-0.977417 -0.45751953 -1.5994263 -1.1428223q-0.85046387 -0.94958496 -2.0413818 -2.9682312l-1.1512146 -1.951355l-5.5853577 3.2940674l-1.7625122 -2.9876099zm14.063782 -4.267273l-4.199127 2.4765015l0.96066284 1.6283569q1.0480042 1.7763977 1.6261292 2.233612q0.578125 0.45718384 1.2745667 0.49993896q0.69647217 0.042755127 1.3424988 -0.33822632q0.80752563 -0.47625732 1.0545349 -1.2568359q0.24700928 -0.7805786 -0.04714966 -1.5866699q-0.2098999 -0.60180664 -1.1626282 -2.2167358l-0.8494873 -1.4399414zm2.76474 15.756622l-1.0588379 -2.840271q1.8152771 -0.4901123 3.1747742 0.12301636q1.3808899 0.61865234 2.6194153 2.7180176q1.1194763 1.8975525 1.2096863 3.0959778q0.10366821 1.1905212 -0.37387085 1.9801025q-0.46411133 0.7816162 -2.307953 1.8690491l-3.3266907 1.9257202q-1.4131775 0.83343506 -2.0067139 1.3648987q-0.5935364 0.5314331 -1.1383972 1.3606873l-1.6593323 -2.8126526q0.21914673 -0.2743225 0.6756592 -0.761261q0.21603394 -0.21810913 0.27294922 -0.3060913q-1.1285706 -0.31396484 -1.9841919 -0.934021q-0.8342285 -0.614563 -1.3820496 -1.5431213q-0.976532 -1.655304 -0.63848877 -3.1425781q0.3380432 -1.4873047 1.7108154 -2.296936q0.9017334 -0.53182983 1.8691101 -0.5218811q0.9673767 0.009979248 1.8046875 0.5682678q0.8452759 0.5717468 1.9932861 1.8719482q1.5518799 1.7694702 2.327423 2.3460388l0.2826233 -0.16668701q0.8209839 -0.4841919 0.919281 -1.0863342q0.11175537 -0.6101074 -0.5472107 -1.7271118q-0.45254517 -0.7670593 -1.0027161 -1.0231018q-0.5422058 -0.24255371 -1.433258 -0.061676025zm-0.062561035 5.1523438q-0.513916 -0.4406128 -1.4682922 -1.4740906q-0.9329834 -1.0279236 -1.3896179 -1.2484131q-0.72927856 -0.31362915 -1.3348999 0.043548584q-0.5921936 0.34924316 -0.76086426 1.0473633q-0.16870117 0.6980896 0.23620605 1.3844299q0.45254517 0.76708984 1.3554382 1.159729q0.69992065 0.29467773 1.3470154 0.1307373q0.42687988 -0.106658936 1.4497681 -0.7099304l0.5652466 -0.33337402zm-0.26205444 11.3333435l-1.6752014 -2.839569l10.726593 -6.3262024l1.5560913 2.6376953l-1.5342712 0.9048767q1.4871216 0.029937744 2.1411438 0.369812q0.67544556 0.34539795 1.0803528 1.0317383q0.57162476 0.9689331 0.5572815 2.174652l-2.9924622 0.5857544q0.05026245 -0.99108887 -0.3149414 -1.6101379q-0.34933472 -0.59213257 -0.9319153 -0.81088257q-0.5691223 -0.22668457 -1.5733948 0.039093018q-0.9963074 0.27920532 -3.728424 1.8905334l-3.310852 1.9526367zm16.774384 3.9251404l-2.2610474 1.3334961l-1.14328 -1.9378967l-4.3202515 2.547943q-1.3189392 0.77786255 -1.502533 0.9587097q-0.18356323 0.18081665 -0.22045898 0.45654297q-0.01550293 0.28125 0.1512146 0.5638428q0.23025513 0.3902893 0.94403076 0.98516846l-2.0508728 1.5360413q-1.0181885 -0.7418823 -1.7565308 -1.9934387q-0.45254517 -0.7670593 -0.56204224 -1.5369263q-0.1015625 -0.7564087 0.12753296 -1.2906189q0.25048828 -0.528656 0.8868408 -1.0490723q0.4423828 -0.38787842 1.9363098 -1.2689514l4.6836243 -2.762268l-0.7701111 -1.3053894l2.2610474 -1.3334961l0.7701111 1.3053894l2.1264954 -1.2541199l3.338562 1.876709l-3.7819214 2.2304382l1.14328 1.9378967zm2.6087036 1.1008301l2.6244507 -1.547821l1.6752014 2.839569l-2.6244507 1.5477905l-1.6752014 -2.8395386zm-12.180115 7.183441l10.726593 -6.3262024l1.6752014 2.839569l-10.726593 6.3262024l-1.6752014 -2.839569zm9.191772 15.580566l-1.5560913 -2.6376953l1.574646 -0.92871094q-1.3041992 -0.119659424 -2.285797 -0.7379761q-0.96813965 -0.62628174 -1.5080261 -1.5413818q-1.087677 -1.8437195 -0.38528442 -4.035675q0.71588135 -2.1999207 3.3806763 -3.7715454q2.7321167 -1.6112976 4.899536 -1.1662903q2.1887817 0.45056152 3.3399963 2.4019165q1.0638733 1.8033142 0.3400879 3.9897766l5.3296204 -3.1432495l1.6752014 2.839569l-14.804565 8.731262zm1.1289673 -10.878662q-1.7227173 1.0160217 -2.2040405 1.9529114q-0.69869995 1.3372192 0.023773193 2.5618591q0.57958984 0.9824219 1.805481 1.1845703q1.2393188 0.19421387 2.8947449 -0.7821045q1.8572998 -1.0953674 2.2678528 -2.2445068q0.41851807 -1.1356812 -0.19284058 -2.1719055q-0.59542847 -1.0093384 -1.8078613 -1.2194214q-1.1989746 -0.21801758 -2.7871094 0.7185974zm5.6534424 9.767395q1.4131775 -0.83343506 3.137024 -0.9249878q1.7318115 -0.078063965 3.1858826 0.7876587q1.4541016 0.86572266 2.3829956 2.4402466q1.4370422 2.435852 0.7619324 4.920105q-0.65371704 2.489746 -3.0628052 3.9105835q-2.4360352 1.436676 -4.966522 0.80670166q-2.530487 -0.62997437 -3.9357605 -3.011963q-0.86538696 -1.4668884 -0.9998474 -3.2015991q-0.11303711 -1.7291565 0.75268555 -3.1830444q0.8871155 -1.4483337 2.7444153 -2.5437012zm1.5534058 3.0021057q-1.5881348 0.936615 -1.9914246 2.1903076q-0.4032898 1.2536926 0.25567627 2.3706665q0.6510315 1.1035156 1.943512 1.3570862q1.292511 0.25357056 2.9075623 -0.6989441q1.5746765 -0.9286804 1.9779663 -2.182373q0.4032898 -1.2536926 -0.2477417 -2.3572083q-0.65896606 -1.1169739 -1.951477 -1.3705444q-1.2924805 -0.25357056 -2.8940735 0.6910095zm3.2263184 10.727173l2.1272888 2.5910645q-0.7312317 0.66708374 -0.83639526 1.4728394q-0.097229004 0.81921387 0.4902954 1.815094q0.6510315 1.1035156 1.38031 1.4171448q0.50491333 0.21014404 0.9894409 -0.07562256q0.32299805 -0.19049072 0.40579224 -0.5114136q0.07485962 -0.3343811 -0.18685913 -1.1777344q-1.2708435 -3.8762207 -1.1781616 -5.164398q0.1071167 -1.7864685 1.6548767 -2.6992798q1.3996887 -0.8255005 2.9928284 -0.2775879q1.6065979 0.5399475 2.972168 2.8546448q1.2941284 2.1936035 1.1945496 3.6853943q-0.07815552 1.4972839 -1.239685 2.7265015l-2.0779114 -2.384369q0.5372925 -0.5345459 0.5744934 -1.2095337q0.05065918 -0.68289185 -0.47335815 -1.571106q-0.65896606 -1.1169739 -1.2543335 -1.4188843q-0.41934204 -0.18804932 -0.7692566 0.018310547q-0.29608154 0.1746521 -0.34469604 0.58425903q-0.05239868 0.5569458 0.75653076 3.1273804q0.8223877 2.5625 0.6140747 3.9007263q-0.2296753 1.3327026 -1.5890198 2.1343994q-1.46698 0.86520386 -3.2606506 0.2541504q-1.7857056 -0.5975647 -3.2068481 -3.0065002q-1.2941284 -2.193573 -1.1600952 -3.9959412q0.1340332 -1.8023376 1.4246216 -3.0895386z" fill-rule="nonzero"></path><path fill="#f4cccc" d="m135.83028 461.7112l111.19574 -192.3386l111.195755 192.3386z" fill-rule="nonzero"></path><path stroke="#000000" stroke-width="2.0" stroke-linejoin="round" stroke-linecap="butt" d="m135.83028 461.7112l111.19574 -192.3386l111.195755 192.3386z" fill-rule="nonzero"></path><path fill="#000000" fill-opacity="0.0" d="m182.62444 367.6232l138.92915 0l0 66.99213l-138.92915 0z" fill-rule="nonzero"></path><path fill="#000000" d="m219.25697 381.463l0 -17.046875l3.46875 0l0 14.15625l8.625 0l0 2.890625l-12.09375 0zm14.535156 -14.140625l0 -3.046875l3.296875 0l0 3.046875l-3.296875 0zm0 14.140625l0 -12.453125l3.296875 0l0 12.453125l-3.296875 0zm6.3710938 0.828125l3.765625 0.453125q0.09375 0.65625 0.421875 0.90625q0.46875 0.34375 1.484375 0.34375q1.28125 0 1.9375 -0.390625q0.421875 -0.25 0.65625 -0.828125q0.140625 -0.40625 0.140625 -1.515625l0 -1.8125q-1.46875 2.015625 -3.71875 2.015625q-2.515625 0 -3.96875 -2.125q-1.15625 -1.671875 -1.15625 -4.171875q0 -3.125 1.5 -4.78125q1.515625 -1.65625 3.75 -1.65625q2.3125 0 3.8125 2.03125l0 -1.75l3.078125 0l0 11.171875q0 2.203125 -0.359375 3.296875q-0.359375 1.09375 -1.015625 1.703125q-0.65625 0.625 -1.765625 0.96875q-1.09375 0.359375 -2.765625 0.359375q-3.15625 0 -4.484375 -1.078125q-1.328125 -1.078125 -1.328125 -2.75q0 -0.15625 0.015625 -0.390625zm2.9375 -7.3125q0 1.984375 0.765625 2.90625q0.765625 0.921875 1.890625 0.921875q1.21875 0 2.046875 -0.9375q0.828125 -0.953125 0.828125 -2.8125q0 -1.921875 -0.796875 -2.859375q-0.796875 -0.9375 -2.015625 -0.9375q-1.1875 0 -1.953125 0.921875q-0.765625 0.90625 -0.765625 2.796875zm14.4882965 -2.171875l-2.9843903 -0.53125q0.5 -1.8125 1.7187653 -2.671875q1.234375 -0.875 3.671875 -0.875q2.203125 0 3.28125 0.53125q1.078125 0.515625 1.515625 1.328125q0.4375 0.796875 0.4375 2.9375l-0.03125 3.84375q0 1.640625 0.15625 2.421875q0.15625 0.78125 0.59375 1.671875l-3.265625 0q-0.125 -0.328125 -0.3125 -0.96875q-0.078125 -0.296875 -0.125 -0.390625q-0.84375 0.8125 -1.8125 1.234375q-0.953125 0.40625 -2.03125 0.40625q-1.921875 0 -3.0312653 -1.046875q-1.109375 -1.046875 -1.109375 -2.640625q0 -1.046875 0.5 -1.875q0.5 -0.828125 1.4062653 -1.265625q0.921875 -0.4375 2.625 -0.765625q2.3125 -0.4375 3.203125 -0.8125l0 -0.328125q0 -0.953125 -0.46875 -1.34375q-0.46875 -0.40625 -1.765625 -0.40625q-0.890625 0 -1.390625 0.34375q-0.484375 0.34375 -0.78125 1.203125zm4.40625 2.671875q-0.640625 0.21875 -2.015625 0.515625q-1.359375 0.28125 -1.78125 0.5625q-0.640625 0.46875 -0.640625 1.171875q0 0.6875 0.515625 1.1875q0.515625 0.5 1.3125 0.5q0.890625 0 1.6875 -0.578125q0.609375 -0.453125 0.796875 -1.09375q0.125 -0.421875 0.125 -1.609375l0 -0.65625zm5.3164062 2.4375l3.3125 -0.515625q0.203125 0.96875 0.84375 1.46875q0.65625 0.5 1.8125 0.5q1.28125 0 1.921875 -0.46875q0.4375 -0.328125 0.4375 -0.890625q0 -0.375 -0.234375 -0.609375q-0.25 -0.234375 -1.109375 -0.4375q-3.984375 -0.875 -5.046875 -1.609375q-1.484375 -1.0 -1.484375 -2.796875q0 -1.625 1.28125 -2.71875q1.28125 -1.109375 3.96875 -1.109375q2.546875 0 3.78125 0.84375q1.25 0.828125 1.71875 2.453125l-3.109375 0.578125q-0.1875 -0.734375 -0.75 -1.109375q-0.5625 -0.390625 -1.59375 -0.390625q-1.296875 0 -1.859375 0.359375q-0.375 0.265625 -0.375 0.671875q0 0.34375 0.328125 0.59375q0.453125 0.328125 3.078125 0.9375q2.625 0.59375 3.671875 1.453125q1.03125 0.875 1.03125 2.453125q0 1.703125 -1.4375 2.9375q-1.421875 1.234375 -4.21875 1.234375q-2.546875 0 -4.03125 -1.03125q-1.484375 -1.03125 -1.9375 -2.796875zm14.425781 0.25l3.296875 0l0 2.359375q0 1.4375 -0.25 2.25q-0.25 0.828125 -0.9375 1.484375q-0.671875 0.65625 -1.734375 1.03125l-0.640625 -1.359375q1.0 -0.328125 1.421875 -0.90625q0.421875 -0.5625 0.4375 -1.5625l-1.59375 0l0 -3.296875z" fill-rule="nonzero"></path><path fill="#000000" d="m223.31752 400.29114l-3.25 0.578125q-0.15625 -0.96875 -0.75 -1.453125q-0.578125 -0.5 -1.5 -0.5q-1.234375 0 -1.96875 0.859375q-0.71875 0.84375 -0.71875 2.828125q0 2.21875 0.734375 3.140625q0.75 0.90625 2.0 0.90625q0.9375 0 1.53125 -0.53125q0.609375 -0.53125 0.84375 -1.828125l3.234375 0.546875q-0.5 2.21875 -1.9375 3.359375q-1.421875 1.140625 -3.828125 1.140625q-2.71875 0 -4.34375 -1.71875q-1.625 -1.734375 -1.625 -4.78125q0 -3.078125 1.625 -4.796875q1.625 -1.71875 4.40625 -1.71875q2.28125 0 3.609375 0.984375q1.34375 0.984375 1.9375 2.984375zm2.4882812 8.765625l0 -17.1875l3.296875 0l0 17.1875l-3.296875 0zm14.871094 0l0 -1.859375q-0.6875 0.984375 -1.796875 1.5625q-1.109375 0.578125 -2.328125 0.578125q-1.265625 0 -2.265625 -0.546875q-0.984375 -0.5625 -1.4375 -1.546875q-0.4375 -1.0 -0.4375 -2.765625l0 -7.875l3.296875 0l0 5.71875q0 2.625 0.171875 3.21875q0.1875 0.59375 0.65625 0.9375q0.484375 0.34375 1.234375 0.34375q0.84375 0 1.5 -0.453125q0.671875 -0.46875 0.921875 -1.15625q0.25 -0.6875 0.25 -3.359375l0 -5.25l3.28125 0l0 12.453125l-3.046875 0zm6.3164062 0l0 -17.1875l3.296875 0l0 6.1875q1.53125 -1.734375 3.609375 -1.734375q2.2812653 0 3.7656403 1.65625q1.484375 1.640625 1.484375 4.71875q0 3.1875 -1.515625 4.921875q-1.515625 1.71875 -3.6875153 1.71875q-1.0625 0 -2.109375 -0.53125q-1.03125 -0.53125 -1.78125 -1.578125l0 1.828125l-3.0625 0zm3.28125 -6.5q0 1.9375 0.609375 2.859375q0.84375 1.3125 2.265625 1.3125q1.09375 0 1.859375 -0.921875q0.765625 -0.9375 0.765625 -2.9375q0 -2.140625 -0.78125 -3.078125q-0.765625 -0.9375 -1.96875 -0.9375q-1.1875 0 -1.96875 0.921875q-0.78125 0.90625 -0.78125 2.78125zm10.3632965 2.953125l3.3125 -0.515625q0.203125 0.96875 0.84375 1.46875q0.65625 0.5 1.8125 0.5q1.28125 0 1.921875 -0.46875q0.4375 -0.328125 0.4375 -0.890625q0 -0.375 -0.234375 -0.609375q-0.25 -0.234375 -1.109375 -0.4375q-3.984375 -0.875 -5.046875 -1.609375q-1.484375 -1.0 -1.484375 -2.796875q0 -1.625 1.28125 -2.71875q1.28125 -1.109375 3.96875 -1.109375q2.546875 0 3.78125 0.84375q1.25 0.828125 1.71875 2.453125l-3.109375 0.578125q-0.1875 -0.734375 -0.75 -1.109375q-0.5625 -0.390625 -1.59375 -0.390625q-1.296875 0 -1.859375 0.359375q-0.375 0.265625 -0.375 0.671875q0 0.34375 0.328125 0.59375q0.453125 0.328125 3.078125 0.9375q2.625 0.59375 3.671875 1.453125q1.03125 0.875 1.03125 2.453125q0 1.703125 -1.4375 2.9375q-1.421875 1.234375 -4.21875 1.234375q-2.546875 0 -4.03125 -1.03125q-1.484375 -1.03125 -1.9375 -2.796875zm19.625 -8.90625l3.5 0l2.96875 8.84375l2.90625 -8.84375l3.421875 0l-4.40625 11.984375l-0.78125 2.171875q-0.4375 1.09375 -0.828125 1.65625q-0.390625 0.578125 -0.90625 0.9375q-0.5 0.359375 -1.25 0.546875q-0.734375 0.203125 -1.671875 0.203125q-0.953125 0 -1.875 -0.1875l-0.28125 -2.578125q0.765625 0.140625 1.390625 0.140625q1.140625 0 1.6875 -0.671875q0.5625 -0.671875 0.859375 -1.71875l-4.734375 -12.484375z" fill-rule="nonzero"></path><path fill="#000000" d="m196.39955 422.5099l0 -3.046875l3.296875 0l0 3.046875l-3.296875 0zm3.296875 1.6875l0 12.0625q0 2.390625 -0.3125 3.359375q-0.3125 0.984375 -1.203125 1.53125q-0.875 0.546875 -2.25 0.546875q-0.5 0 -1.078125 -0.09375q-0.5625 -0.078125 -1.21875 -0.25l0.578125 -2.8125q0.234375 0.046875 0.453125 0.078125q0.203125 0.03125 0.375 0.03125q0.5 0 0.8125 -0.21875q0.328125 -0.21875 0.4375 -0.53125q0.109375 -0.296875 0.109375 -1.828125l0 -11.875l3.296875 0zm11.636719 12.453125l0 -1.859375q-0.6875 0.984375 -1.796875 1.5625q-1.109375 0.578125 -2.328125 0.578125q-1.265625 0 -2.265625 -0.546875q-0.984375 -0.5625 -1.4375 -1.546875q-0.4375 -1.0 -0.4375 -2.765625l0 -7.875l3.296875 0l0 5.71875q0 2.625 0.171875 3.21875q0.1875 0.59375 0.65625 0.9375q0.484375 0.34375 1.234375 0.34375q0.84375 0 1.5 -0.453125q0.671875 -0.46875 0.921875 -1.15625q0.25 -0.6875 0.25 -3.359375l0 -5.25l3.28125 0l0 12.453125l-3.046875 0zm6.1601562 0.828125l3.765625 0.453125q0.09375 0.65625 0.421875 0.90625q0.46875 0.34375 1.484375 0.34375q1.28125 0 1.9375 -0.390625q0.421875 -0.25 0.65625 -0.828125q0.140625 -0.40625 0.140625 -1.515625l0 -1.8125q-1.46875 2.015625 -3.71875 2.015625q-2.515625 0 -3.96875 -2.125q-1.15625 -1.671875 -1.15625 -4.171875q0 -3.125 1.5 -4.78125q1.515625 -1.65625 3.75 -1.65625q2.3125 0 3.8125 2.03125l0 -1.75l3.078125 0l0 11.171875q0 2.203125 -0.359375 3.296875q-0.359375 1.09375 -1.015625 1.703125q-0.65625 0.625 -1.765625 0.96875q-1.09375 0.359375 -2.765625 0.359375q-3.15625 0 -4.484375 -1.078125q-1.328125 -1.078125 -1.328125 -2.75q0 -0.15625 0.015625 -0.390625zm2.9375 -7.3125q0 1.984375 0.765625 2.90625q0.765625 0.921875 1.890625 0.921875q1.21875 0 2.046875 -0.9375q0.828125 -0.953125 0.828125 -2.8125q0 -1.921875 -0.796875 -2.859375q-0.796875 -0.9375 -2.015625 -0.9375q-1.1875 0 -1.953125 0.921875q-0.765625 0.90625 -0.765625 2.796875zm14.488281 -2.171875l-2.984375 -0.53125q0.5 -1.8125 1.71875 -2.671875q1.234375 -0.875 3.671875 -0.875q2.203125 0 3.28125 0.53125q1.078125 0.515625 1.515625 1.328125q0.4375 0.796875 0.4375 2.9375l-0.03125 3.84375q0 1.640625 0.15625 2.421875q0.15625 0.78125 0.59375 1.671875l-3.265625 0q-0.125 -0.328125 -0.3125 -0.96875q-0.078125 -0.296875 -0.125 -0.390625q-0.84375 0.8125 -1.8125 1.234375q-0.953125 0.40625 -2.03125 0.40625q-1.921875 0 -3.03125 -1.046875q-1.109375 -1.046875 -1.109375 -2.640625q0 -1.046875 0.5 -1.875q0.5 -0.828125 1.40625 -1.265625q0.921875 -0.4375 2.625 -0.765625q2.3125 -0.4375 3.203125 -0.8125l0 -0.328125q0 -0.953125 -0.46875 -1.34375q-0.46875 -0.40625 -1.765625 -0.40625q-0.890625 0 -1.390625 0.34375q-0.484375 0.34375 -0.78125 1.203125zm4.40625 2.671875q-0.640625 0.21875 -2.015625 0.515625q-1.359375 0.28125 -1.78125 0.5625q-0.640625 0.46875 -0.640625 1.171875q0 0.6875 0.515625 1.1875q0.515625 0.5 1.3125 0.5q0.890625 0 1.6875 -0.578125q0.609375 -0.453125 0.796875 -1.09375q0.125 -0.421875 0.125 -1.609375l0 -0.65625zm17.894547 5.984375l-3.0625153 0l0 -1.828125q-0.765625 1.0625 -1.796875 1.59375q-1.03125 0.515625 -2.09375 0.515625q-2.140625 0 -3.671875 -1.71875q-1.53125 -1.734375 -1.53125 -4.828125q0 -3.171875 1.484375 -4.8125q1.5 -1.65625 3.765625 -1.65625q2.09375 0 3.609375 1.734375l0 -6.1875l3.2968903 0l0 17.1875zm-8.79689 -6.5q0 2.0 0.5625 2.890625q0.796875 1.28125 2.21875 1.28125q1.140625 0 1.9375 -0.953125q0.796875 -0.96875 0.796875 -2.890625q0 -2.15625 -0.78125 -3.09375q-0.765625 -0.9375 -1.96875 -0.9375q-1.171875 0 -1.96875 0.9375q-0.796875 0.921875 -0.796875 2.765625zm11.2851715 0.09375q0 -1.640625 0.796875 -3.171875q0.8125 -1.53125 2.296875 -2.34375q1.484375 -0.8125 3.3125 -0.8125q2.828125 0 4.625 1.84375q1.8125 1.828125 1.8125 4.625q0 2.828125 -1.828125 4.6875q-1.828125 1.859375 -4.59375 1.859375q-1.703125 0 -3.265625 -0.765625q-1.546875 -0.78125 -2.359375 -2.265625q-0.796875 -1.5 -0.796875 -3.65625zm3.375 0.1875q0 1.84375 0.875 2.828125q0.875 0.984375 2.171875 0.984375q1.28125 0 2.15625 -0.984375q0.875 -0.984375 0.875 -2.859375q0 -1.828125 -0.875 -2.8125q-0.875 -0.984375 -2.15625 -0.984375q-1.296875 0 -2.171875 0.984375q-0.875 0.984375 -0.875 2.84375zm15.191406 6.21875l-3.296875 0l0 -12.453125l3.0625 0l0 1.78125q0.78125 -1.265625 1.40625 -1.65625q0.640625 -0.40625 1.4375 -0.40625q1.125 0 2.15625 0.625l-1.015625 2.875q-0.828125 -0.546875 -1.546875 -0.546875q-0.6875 0 -1.171875 0.390625q-0.484375 0.375 -0.765625 1.375q-0.265625 1.0 -0.265625 4.171875l0 3.84375zm13.402344 -3.96875l3.28125 0.5625q-0.640625 1.796875 -2.015625 2.75q-1.359375 0.9375 -3.40625 0.9375q-3.25 0 -4.796875 -2.125q-1.234375 -1.703125 -1.234375 -4.28125q0 -3.09375 1.609375 -4.84375q1.625 -1.765625 4.09375 -1.765625q2.78125 0 4.375 1.84375q1.609375 1.828125 1.546875 5.609375l-8.25 0q0.03125 1.46875 0.796875 2.28125q0.765625 0.8125 1.890625 0.8125q0.78125 0 1.296875 -0.421875q0.53125 -0.421875 0.8125 -1.359375zm0.1875 -3.328125q-0.046875 -1.421875 -0.75 -2.15625q-0.703125 -0.75 -1.703125 -0.75q-1.078125 0 -1.78125 0.78125q-0.703125 0.78125 -0.6875 2.125l4.921875 0zm4.7851562 3.75l3.3125 -0.515625q0.203125 0.96875 0.84375 1.46875q0.65625 0.5 1.8125 0.5q1.28125 0 1.921875 -0.46875q0.4375 -0.328125 0.4375 -0.890625q0 -0.375 -0.234375 -0.609375q-0.25 -0.234375 -1.109375 -0.4375q-3.984375 -0.875 -5.046875 -1.609375q-1.484375 -1.0 -1.484375 -2.796875q0 -1.625 1.28125 -2.71875q1.28125 -1.109375 3.96875 -1.109375q2.546875 0 3.78125 0.84375q1.25 0.828125 1.71875 2.453125l-3.109375 0.578125q-0.1875 -0.734375 -0.75 -1.109375q-0.5625 -0.390625 -1.59375 -0.390625q-1.296875 0 -1.859375 0.359375q-0.375 0.265625 -0.375 0.671875q0 0.34375 0.328125 0.59375q0.453125 0.328125 3.078125 0.9375q2.625 0.59375 3.671875 1.453125q1.03125 0.875 1.03125 2.453125q0 1.703125 -1.4375 2.9375q-1.421875 1.234375 -4.21875 1.234375q-2.546875 0 -4.03125 -1.03125q-1.484375 -1.03125 -1.9375 -2.796875z" fill-rule="nonzero"></path></g></svg>

