<?xml version="1.0" standalone="yes"?>

<svg version="1.1" viewBox="0.0 0.0 548.0 487.0" fill="none" stroke="none" stroke-linecap="square" stroke-miterlimit="10" xmlns="http://www.w3.org/2000/svg" xmlns:xlink="http://www.w3.org/1999/xlink"><clipPath id="p.0"><path d="m0 0l548.0 0l0 487.0l-548.0 0l0 -487.0z" clip-rule="nonzero"></path></clipPath><g clip-path="url(#p.0)"><path fill="#000000" fill-opacity="0.0" d="m0 0l548.47766 0l0 487.30447l-548.47766 0z" fill-rule="nonzero"></path><path fill="#d9ead3" d="m20.216478 463.09854l255.81673 -443.48407l255.81671 443.48407z" fill-rule="nonzero"></path><path stroke="#000000" stroke-width="2.0" stroke-linejoin="round" stroke-linecap="butt" d="m20.216478 463.09854l255.81673 -443.48407l255.81671 443.48407z" fill-rule="nonzero"></path><path fill="#000000" fill-opacity="0.0" d="m199.46281 414.99084l153.1408 0l0 37.96176l-153.1408 0z" fill-rule="nonzero"></path><path fill="#000000" d="m226.4004 424.7217l3.46875 0l0 9.3125q0 2.21875 0.140625 2.875q0.21875 1.046875 1.046875 1.6875q0.84375 0.640625 2.296875 0.640625q1.484375 0 2.234375 -0.59375q0.75 -0.609375 0.890625 -1.484375q0.15625 -0.890625 0.15625 -2.921875l0 -9.515625l3.46875 0l0 9.03125q0 3.09375 -0.28125 4.375q-0.28125 1.265625 -1.046875 2.15625q-0.75 0.875 -2.015625 1.40625q-1.265625 0.515625 -3.296875 0.515625q-2.46875 0 -3.734375 -0.5625q-1.265625 -0.578125 -2.015625 -1.484375q-0.734375 -0.90625 -0.96875 -1.90625q-0.34375 -1.484375 -0.34375 -4.359375l0 -9.171875zm16.175781 13.640625l3.3125 -0.515625q0.203125 0.96875 0.84375 1.46875q0.65625 0.5 1.8125 0.5q1.28125 0 1.921875 -0.46875q0.4375 -0.328125 0.4375 -0.890625q0 -0.375 -0.234375 -0.609375q-0.25 -0.234375 -1.109375 -0.4375q-3.984375 -0.875 -5.046875 -1.609375q-1.484375 -1.0 -1.484375 -2.796875q0 -1.625 1.28125 -2.71875q1.28125 -1.109375 3.96875 -1.109375q2.546875 0 3.78125 0.84375q1.25 0.828125 1.71875 2.453125l-3.109375 0.578125q-0.1875 -0.734375 -0.75 -1.109375q-0.5625 -0.390625 -1.59375 -0.390625q-1.296875 0 -1.859375 0.359375q-0.375 0.265625 -0.375 0.671875q0 0.34375 0.328125 0.59375q0.453125 0.328125 3.078125 0.9375q2.625 0.59375 3.671875 1.453125q1.03125 0.875 1.03125 2.453125q0 1.703125 -1.4375 2.9375q-1.421875 1.234375 -4.21875 1.234375q-2.546875 0 -4.03125 -1.03125q-1.484375 -1.03125 -1.9375 -2.796875zm22.707016 3.546875l0 -1.859375q-0.6875 0.984375 -1.796875 1.5625q-1.109375 0.578125 -2.328125 0.578125q-1.265625 0 -2.265625 -0.546875q-0.984375 -0.5625 -1.4375 -1.546875q-0.4375 -1.0 -0.4375 -2.765625l0 -7.875l3.296875 0l0 5.71875q0 2.625 0.171875 3.21875q0.1875 0.59375 0.65625 0.9375q0.484375 0.34375 1.234375 0.34375q0.84375 0 1.5 -0.453125q0.671875 -0.46875 0.921875 -1.15625q0.25 -0.6875 0.25 -3.359375l0 -5.25l3.28125 0l0 12.453125l-3.046875 0zm8.925781 -8.65625l-2.984375 -0.53125q0.5 -1.8125 1.71875 -2.671875q1.234375 -0.875 3.671875 -0.875q2.203125 0 3.28125 0.53125q1.078125 0.515625 1.515625 1.328125q0.4375 0.796875 0.4375 2.9375l-0.03125 3.84375q0 1.640625 0.15625 2.421875q0.15625 0.78125 0.59375 1.671875l-3.265625 0q-0.125 -0.328125 -0.3125 -0.96875q-0.078125 -0.296875 -0.125 -0.390625q-0.84375 0.8125 -1.8125 1.234375q-0.953125 0.40625 -2.03125 0.40625q-1.921875 0 -3.03125 -1.046875q-1.109375 -1.046875 -1.109375 -2.640625q0 -1.046875 0.5 -1.875q0.5 -0.828125 1.40625 -1.265625q0.921875 -0.4375 2.625 -0.765625q2.3125 -0.4375 3.203125 -0.8125l0 -0.328125q0 -0.953125 -0.46875 -1.34375q-0.46875 -0.40625 -1.765625 -0.40625q-0.890625 0 -1.390625 0.34375q-0.484375 0.34375 -0.78125 1.203125zm4.40625 2.671875q-0.640625 0.21875 -2.015625 0.515625q-1.359375 0.28125 -1.78125 0.5625q-0.640625 0.46875 -0.640625 1.171875q0 0.6875 0.515625 1.1875q0.515625 0.5 1.3125 0.5q0.890625 0 1.6875 -0.578125q0.609375 -0.453125 0.796875 -1.09375q0.125 -0.421875 0.125 -1.609375l0 -0.65625zm9.628906 5.984375l-3.296875 0l0 -12.453125l3.0625 0l0 1.78125q0.78125 -1.265625 1.40625 -1.65625q0.640625 -0.40625 1.4375 -0.40625q1.125 0 2.15625 0.625l-1.015625 2.875q-0.828125 -0.546875 -1.546875 -0.546875q-0.6875 0 -1.171875 0.390625q-0.484375 0.375 -0.765625 1.375q-0.265625 1.0 -0.265625 4.171875l0 3.84375zm6.1835938 -14.140625l0 -3.046875l3.296875 0l0 3.046875l-3.296875 0zm0 14.140625l0 -12.453125l3.296875 0l0 12.453125l-3.296875 0zm5.9179688 -6.40625q0 -1.640625 0.796875 -3.171875q0.8125 -1.53125 2.296875 -2.34375q1.484375 -0.8125 3.3125 -0.8125q2.828125 0 4.625 1.84375q1.8125 1.828125 1.8125 4.625q0 2.828125 -1.828125 4.6875q-1.828125 1.859375 -4.59375 1.859375q-1.703125 0 -3.265625 -0.765625q-1.546875 -0.78125 -2.359375 -2.265625q-0.796875 -1.5 -0.796875 -3.65625zm3.375 0.1875q0 1.84375 0.875 2.828125q0.875 0.984375 2.171875 0.984375q1.28125 0 2.15625 -0.984375q0.875 -0.984375 0.875 -2.859375q0 -1.828125 -0.875 -2.8125q-0.875 -0.984375 -2.15625 -0.984375q-1.296875 0 -2.171875 0.984375q-0.875 0.984375 -0.875 2.84375zm10.878906 2.671875l3.3125 -0.515625q0.203125 0.96875 0.84375 1.46875q0.65625 0.5 1.8125 0.5q1.28125 0 1.921875 -0.46875q0.4375 -0.328125 0.4375 -0.890625q0 -0.375 -0.234375 -0.609375q-0.25 -0.234375 -1.109375 -0.4375q-3.984375 -0.875 -5.046875 -1.609375q-1.484375 -1.0 -1.484375 -2.796875q0 -1.625 1.28125 -2.71875q1.28125 -1.109375 3.96875 -1.109375q2.546875 0 3.78125 0.84375q1.25 0.828125 1.71875 2.453125l-3.109375 0.578125q-0.1875 -0.734375 -0.75 -1.109375q-0.5625 -0.390625 -1.59375 -0.390625q-1.296875 0 -1.859375 0.359375q-0.375 0.265625 -0.375 0.671875q0 0.34375 0.328125 0.59375q0.453125 0.328125 3.078125 0.9375q2.625 0.59375 3.671875 1.453125q1.03125 0.875 1.03125 2.453125q0 1.703125 -1.4375 2.9375q-1.421875 1.234375 -4.21875 1.234375q-2.546875 0 -4.03125 -1.03125q-1.484375 -1.03125 -1.9375 -2.796875z" fill-rule="nonzero"></path><path fill="#cfe2f3" d="m53.100723 404.8394l222.8911 -385.29214l222.89108 385.29214z" fill-rule="nonzero"></path><path stroke="#000000" stroke-width="2.0" stroke-linejoin="round" stroke-linecap="butt" d="m53.100723 404.8394l222.8911 -385.29214l222.89108 385.29214z" fill-rule="nonzero"></path><path fill="#000000" fill-opacity="0.0" d="m110.08377 305.3168l112.721085 -198.41447l49.188095 27.908157l-112.721085 198.41446z" fill-rule="nonzero"></path><path fill="#000000" d="m175.42628 263.61346l-14.948959 -8.481674l6.2902985 -11.072342l2.5277252 1.4341888l-4.5768585 8.056305l3.3159485 1.8813934l4.2604218 -7.499298l2.514145 1.4264679l-4.2604218 7.499283l4.0769806 2.313202l4.7389526 -8.341614l2.514145 1.4264679l-6.4523773 11.35762zm16.030731 -18.633179l-5.449585 -3.0919647q0.41741943 0.9733887 0.36018372 2.0547333q-0.04951477 1.0677643 -0.6052246 2.045929q-1.0419464 1.8340607 -3.1073303 2.2431183q-2.4198914 0.49534607 -5.1922455 -1.0776215q-2.6092682 -1.4804382 -3.3283234 -3.6309967q-0.7113342 -2.1641388 0.4000702 -4.1204834q0.6097412 -1.0732574 1.519455 -1.5990753q0.90971375 -0.5258026 2.181137 -0.61283875l-1.6036072 -0.9098511l1.5050354 -2.6492157l14.948959 8.481689l-1.6285248 2.8665771zm-9.608444 -5.577347q-1.6579742 -0.94070435 -2.8592834 -0.7240448q-1.201294 0.21664429 -1.7801666 1.2355652q-0.59428406 1.0460968 -0.15893555 2.20932q0.43536377 1.163208 2.229248 2.181015q1.7802734 1.010086 2.9466858 0.7916107q1.1741333 -0.23207092 1.7298279 -1.2102356q0.5634308 -0.99176025 0.10458374 -2.240158q-0.45884705 -1.2483978 -2.2119598 -2.2430725zm12.763107 -9.560074l-1.6172028 -0.917572q0.51657104 1.0835419 0.47140503 2.3334198q-0.045150757 1.2498779 -0.647171 2.309555q-0.62516785 1.1004486 -1.5947876 1.700058q-0.9754791 0.5783081 -2.0554657 0.4865265q-1.0858765 -0.113082886 -2.6215363 -0.984375l-6.8493347 -3.8861542l1.6285248 -2.8665771l4.9739227 2.8220825q2.2831116 1.2953796 2.88443 1.4389496q0.6090393 0.12997437 1.1395569 -0.10797119q0.5382538 -0.25151062 0.9087219 -0.9036255q0.41677856 -0.7336273 0.34683228 -1.527832q-0.07582092 -0.815506 -0.55029297 -1.3721466q-0.4744568 -0.5566406 -2.7983398 -1.8751526l-4.5662384 -2.5907745l1.6208191 -2.8529816l10.831192 6.145355l-1.5050354 2.6492157zm-9.10939 -12.592407l-2.6500397 -1.5035706l1.6285248 -2.8665771l2.650055 1.5035706l-1.62854 2.8665771zm12.29892 6.978119l-10.831207 -6.1453705l1.62854 -2.8665771l10.831192 6.1453705l-1.6285248 2.8665771zm-7.583786 -11.861542l1.5204773 -2.6763763l1.5900269 0.9021454q-0.52211 -0.9788971 -0.52326965 -2.1472626q-0.007019043 -1.1896515 0.60272217 -2.2629242q1.0728302 -1.8884125 3.2950745 -2.352188q2.2299652 -0.47735596 4.8664246 1.0185089q2.717987 1.5421295 3.4700928 3.7294006q0.7462311 2.165985 -0.31887817 4.0408173q-0.5093994 0.8966522 -1.2795105 1.4297943q-0.78370667 0.52545166 -2.0952454 0.8412323l5.4495697 3.0919647l-1.6285248 2.8665771l-14.948959 -8.481689zm6.84523 0.12918091q1.8210449 1.0332184 3.1134644 0.81437683q1.2788086 -0.2265625 1.8731079 -1.2726593q0.5634308 -0.99176025 0.13981628 -2.1123962q-0.4236145 -1.1206207 -2.2446747 -2.153839q-1.7123413 -0.97154236 -2.9213562 -0.7413025q-1.2149048 0.2089386 -1.7860413 1.2142792q-0.5942993 1.0460968 -0.17253113 2.2015991q0.40818787 1.1477966 1.9982147 2.049942zm5.331482 -9.32135q-1.4269562 -0.8096161 -2.3651428 -2.2581177q-0.9304657 -1.4620972 -0.9039154 -3.1536865q0.026535034 -1.6915894 0.9295654 -3.281128q1.3969879 -2.4589996 3.8881836 -3.111496q2.4853363 -0.6737976 4.917938 0.70640564q2.4597778 1.3956146 3.1739655 3.90271q0.71417236 2.50708 -0.65193176 4.911743q-0.8412781 1.4808502 -2.279007 2.4615936q-1.4435883 0.9594574 -3.1359863 0.9333954q-1.6982574 -0.047348022 -3.5736694 -1.1114197zm1.8302002 -2.84198q1.6036072 0.90986633 2.8919983 0.63482666q1.2883759 -0.2750244 1.9289856 -1.4026337q0.6328888 -1.1140289 0.2089386 -2.3605957q-0.4239502 -1.2465668 -2.0547485 -2.1718445q-1.5900269 -0.9021454 -2.8784027 -0.6271057q-1.2883911 0.2750244 -1.9212799 1.3890533q-0.6405945 1.1276093 -0.21664429 2.374176q0.4239502 1.2465668 2.041153 2.1641235zm7.697647 -8.140503l1.1877747 -3.1346283q0.94291687 0.30145264 1.6942444 -0.00881958q0.7590332 -0.3238678 1.3301697 -1.3292084q0.6328888 -1.1140137 0.54164124 -1.9023438q-0.0692749 -0.5423279 -0.55851746 -0.8199158q-0.32615662 -0.18504333 -0.6457825 -0.09692383q-0.3273468 0.10171509 -0.9285126 0.74868774q-2.7291565 3.032547 -3.8927307 3.593979q-1.6029816 0.7971649 -3.1658173 -0.08955383q-1.4133606 -0.8019104 -1.7317657 -2.4556885q-0.33200073 -1.6614685 0.9955139 -3.9982147q1.2580719 -2.2144623 2.601654 -2.8713531q1.3377228 -0.67819214 2.9826202 -0.28385925l-1.033081 2.9888458q-0.7313385 -0.19937134 -1.3353577 0.104660034q-0.6175995 0.29631042 -1.1269989 1.1929626q-0.64060974 1.1276245 -0.605896 1.7940521q0.045791626 0.45713806 0.3991394 0.65760803q0.2989807 0.16963196 0.6784973 0.0077056885q0.5092163 -0.23207092 2.3358765 -2.213745q1.8130646 -1.9893951 3.0776215 -2.4755402q1.2704468 -0.46487427 2.643036 0.3139038q1.4812927 0.8404541 1.8448334 2.6994781q0.3712616 1.8454437 -1.0102997 4.2772827q-1.2580566 2.2144623 -2.888214 2.9962006q-1.6301575 0.7817383 -3.3896484 0.3044281z" fill-rule="nonzero"></path><path fill="#fce5cd" d="m128.59283 403.65942l184.65762 -319.29202l184.6576 319.29202z" fill-rule="nonzero"></path><path stroke="#000000" stroke-width="2.0" stroke-linejoin="round" stroke-linecap="butt" d="m128.59283 403.65942l184.65762 -319.29202l184.6576 319.29202z" fill-rule="nonzero"></path><path fill="#000000" fill-opacity="0.0" d="m347.99496 163.50943l96.06915 162.84225l-40.359955 23.80304l-96.06915 -162.84229z" fill-rule="nonzero"></path><path fill="#000000" d="m346.18195 222.16528l14.804565 -8.731277l6.470581 10.967957l-2.5033264 1.4763794l-4.7080383 -7.980362l-3.283905 1.9367523l4.3825073 7.428604l-2.4898682 1.4684448l-4.3825073 -7.428604l-4.0375977 2.381256l4.874756 8.26297l-2.4898682 1.4684448l-6.6372986 -11.250565zm9.85672 16.707626l8.17804 -10.646103l1.7625427 2.9875946l-4.286804 5.2492065l-1.4889832 1.6581879q0.83480835 -0.18397522 1.103302 -0.2516327q0.5235596 -0.12734985 1.076416 -0.23573303l6.6844788 -1.1850128l1.7228394 2.9203033l-13.243378 2.060135l-1.5084534 -2.5569458zm12.129944 12.750229l1.1827393 3.111847q-1.8732605 0.36105347 -3.3928833 -0.33901978q-1.4982605 -0.6945648 -2.5382996 -2.4575195q-1.6513977 -2.799179 -0.6069946 -5.2109833q0.8397827 -1.9283447 3.0604553 -3.2380219q2.6648254 -1.57164 4.9899597 -1.0745087q2.346527 0.502655 3.6009521 2.6289673q1.4131775 2.3954468 0.6348877 4.7047577q-0.7569275 2.3148193 -4.045685 4.1818695l-4.191986 -7.1056213q-1.2492371 0.7730408 -1.5600586 1.8452148q-0.31082153 1.0721741 0.26080322 2.0411224q0.39697266 0.6728821 1.0223694 0.9026642q0.6333008 0.24325562 1.5837402 0.009231567zm2.961975 -1.5291901q1.2009277 -0.7626953 1.4762268 -1.7413483q0.2887268 -0.9865875 -0.21939087 -1.8478851q-0.54782104 -0.9285736 -1.5780029 -1.1372833q-1.0302124 -0.20872498 -2.179718 0.48736572l2.500885 4.239151zm2.489746 18.580856l-1.6752014 -2.839569l5.4776917 -3.2305603q1.7361755 -1.0239563 2.1229858 -1.5060425q0.40823364 -0.4765625 0.44473267 -1.0604553q0.04446411 -0.57040405 -0.28900146 -1.1356201q-0.4366455 -0.74017334 -1.1897278 -1.0941772q-0.7451782 -0.34057617 -1.5451355 -0.15899658q-0.786499 0.1736145 -2.5765076 1.2292786l-4.8585815 2.865448l-1.6752014 -2.8395386l10.7265625 -6.3262024l1.5561218 2.63768l-1.5746765 0.9286957q2.6426392 0.32803345 3.8970337 2.4543457q0.5557556 0.9420166 0.65838623 1.9154663q0.12399292 0.9790039 -0.16268921 1.6922913q-0.28671265 0.71328735 -0.87231445 1.2581787q-0.564209 0.55044556 -1.8023987 1.2807007l-6.662079 3.9290771zm15.32547 1.4691162l-2.261078 1.3334961l-1.1432495 -1.9378967l-4.3202515 2.547943q-1.3189392 0.77786255 -1.502533 0.9587097q-0.18359375 0.18081665 -0.2204895 0.45654297q-0.015472412 0.28125 0.15124512 0.5638428q0.23022461 0.3902893 0.94400024 0.98516846l-2.0508423 1.5360413q-1.0181885 -0.7418518 -1.7565613 -1.9934082q-0.45254517 -0.76708984 -0.56204224 -1.5369568q-0.10153198 -0.7564087 0.12756348 -1.2905884q0.25048828 -0.5286865 0.8868103 -1.0491028q0.44241333 -0.38787842 1.9363098 -1.2689514l4.6836243 -2.762268l-0.7701111 -1.3053894l2.261078 -1.3334961l0.7701111 1.3053894l2.1264648 -1.2541199l3.338562 1.876709l-3.7818909 2.2304382l1.14328 1.9378967zm-4.4344482 4.3839417q1.4131775 -0.8334656 3.137024 -0.9249878q1.7318115 -0.07809448 3.1858826 0.7876282q1.4541016 0.86572266 2.3829956 2.440277q1.4370422 2.4358215 0.7619324 4.9200745q-0.65371704 2.4897766 -3.0628052 3.9105835q-2.4360352 1.4367065 -4.966522 0.8067322q-2.530487 -0.62997437 -3.9357605 -3.0119934q-0.86538696 -1.4668579 -0.9998474 -3.2015686q-0.11303711 -1.729187 0.75268555 -3.1830444q0.8871155 -1.4483337 2.7444153 -2.5437012zm1.5534058 3.0020752q-1.5881348 0.9366455 -1.9914246 2.1903381q-0.4032898 1.2536621 0.25567627 2.3706665q0.6510315 1.1035156 1.943512 1.3570862q1.292511 0.25354004 2.9075623 -0.6989441q1.5746765 -0.9286804 1.9779663 -2.182373q0.4032898 -1.2536926 -0.2477417 -2.3572083q-0.65896606 -1.1170044 -1.951477 -1.3705444q-1.2924805 -0.25357056 -2.8940735 0.690979zm3.2263489 10.727203l2.1272583 2.5910645q-0.7312317 0.66708374 -0.83639526 1.4728394q-0.097229004 0.81921387 0.4902954 1.815094q0.6510315 1.1035156 1.38031 1.4171448q0.50491333 0.21014404 0.9894409 -0.07562256q0.32299805 -0.19049072 0.40579224 -0.5114136q0.07485962 -0.3343811 -0.18685913 -1.1777649q-1.2708435 -3.8761902 -1.1781616 -5.1643677q0.1071167 -1.7864685 1.6548767 -2.6992798q1.3997192 -0.8255005 2.9928284 -0.2776184q1.6065979 0.539978 2.972168 2.8546753q1.2941284 2.1936035 1.1945496 3.6853638q-0.07815552 1.4973145 -1.239685 2.726532l-2.0778809 -2.384369q0.53726196 -0.5345459 0.5744629 -1.2095337q0.05065918 -0.68289185 -0.47332764 -1.571106q-0.65896606 -1.1169739 -1.2543335 -1.4188843q-0.41934204 -0.18804932 -0.7692871 0.018310547q-0.29608154 0.17462158 -0.34469604 0.5842285q-0.05239868 0.5569763 0.75653076 3.127411q0.8223877 2.5625 0.6140747 3.9007263q-0.2296753 1.3327026 -1.5890198 2.1343994q-1.46698 0.86517334 -3.2606506 0.2541504q-1.7857056 -0.5975647 -3.2068481 -3.0065002q-1.2941284 -2.193573 -1.1600952 -3.9959412q0.1340332 -1.8023376 1.4246521 -3.0895386z" fill-rule="nonzero"></path><path fill="#fff2cc" d="m128.57042 403.64822l149.29066 -258.13892l149.29065 258.13892z" fill-rule="nonzero"></path><path stroke="#000000" stroke-width="2.0" stroke-linejoin="round" stroke-linecap="butt" d="m128.57042 403.64822l149.29066 -258.13892l149.29065 258.13892z" fill-rule="nonzero"></path><path fill="#000000" fill-opacity="0.0" d="m302.17688 211.30963l77.66928 131.65356l-32.629913 19.24408l-77.66928 -131.65355z" fill-rule="nonzero"></path><path fill="#000000" d="m294.35312 250.94609l14.804565 -8.731277l2.826416 4.790924q1.6116943 2.7318878 1.8671875 3.6877441q0.41775513 1.4769135 -0.1991272 2.983551q-0.5954895 1.5121613 -2.3720398 2.559906q-1.359314 0.8016968 -2.581726 0.8514404q-1.2144775 0.06323242 -2.2053528 -0.38635254q-0.9774475 -0.45751953 -1.5994263 -1.142807q-0.8504944 -0.9496155 -2.0413818 -2.9682617l-1.1512146 -1.951355l-5.5853577 3.2940674l-1.7625427 -2.9875793zm14.063782 -4.2673035l-4.1990967 2.4765015l0.96066284 1.6283722q1.0479736 1.776413 1.6260986 2.233612q0.5781555 0.45718384 1.2745972 0.49993896q0.69644165 0.042755127 1.3424683 -0.33824158q0.80752563 -0.47625732 1.0545349 -1.2568359q0.24700928 -0.7805786 -0.04711914 -1.5866699q-0.2098999 -0.6017914 -1.1626282 -2.2167053l-0.8495178 -1.4399719zm2.76474 15.756638l-1.0588074 -2.8403015q1.8152466 -0.4900818 3.1747437 0.123046875q1.3808899 0.61865234 2.6194458 2.7180176q1.1194458 1.897522 1.2096558 3.0959778q0.10369873 1.1905212 -0.37387085 1.980072q-0.4640808 0.7816467 -2.3079224 1.8690796l-3.3267212 1.9257202q-1.4131775 0.83343506 -2.0067139 1.3648682q-0.5935364 0.5314636 -1.1383667 1.3607178l-1.6593323 -2.8126526q0.21911621 -0.27435303 0.6756592 -0.761261q0.21600342 -0.21810913 0.27294922 -0.3060913q-1.1285706 -0.31396484 -1.9841919 -0.934021q-0.8342285 -0.614563 -1.3820496 -1.5431213q-0.976532 -1.655304 -0.6385193 -3.1426086q0.3380432 -1.4873047 1.710846 -2.2969055q0.9017334 -0.53182983 1.8691101 -0.5218811q0.9673462 0.009979248 1.8046875 0.5682678q0.84524536 0.5717468 1.9932861 1.8719177q1.5518494 1.7695007 2.327423 2.3460693l0.2826233 -0.16668701q0.8209839 -0.4841919 0.919281 -1.0863647q0.11172485 -0.6100769 -0.5472412 -1.7270813q-0.45254517 -0.76708984 -1.0026855 -1.0231018q-0.5422058 -0.24255371 -1.4332886 -0.061676025zm-0.06253052 5.1523438q-0.51394653 -0.4406128 -1.4683228 -1.4740906q-0.9329834 -1.0279236 -1.3895874 -1.2484131q-0.72927856 -0.31362915 -1.3349304 0.043548584q-0.5921936 0.34924316 -0.76086426 1.0473633q-0.16867065 0.6980896 0.23623657 1.3844299q0.45254517 0.76708984 1.3554077 1.159729q0.6999512 0.29467773 1.3470154 0.13070679q0.4269104 -0.10662842 1.4497681 -0.7098999l0.5652771 -0.33337402zm-0.26205444 11.3333435l-1.6752014 -2.839569l10.7265625 -6.3262024l1.5561218 2.6376953l-1.5343018 0.9048767q1.4871216 0.029937744 2.1411743 0.369812q0.67544556 0.34539795 1.0803528 1.0317383q0.57162476 0.9689331 0.5572815 2.174652l-2.9924622 0.5857544q0.05026245 -0.99108887 -0.3149414 -1.6101379q-0.34933472 -0.59213257 -0.9319153 -0.81088257q-0.56915283 -0.22668457 -1.5733948 0.039093018q-0.9963379 0.27920532 -3.7284546 1.8905334l-3.3108215 1.9526367zm16.774353 3.9251404l-2.2610474 1.3334961l-1.14328 -1.9378967l-4.320221 2.547943q-1.3189697 0.77786255 -1.502533 0.9587097q-0.18359375 0.18081665 -0.2204895 0.45654297q-0.01550293 0.28125 0.15124512 0.5638428q0.23022461 0.3902588 0.94400024 0.98513794l-2.0508423 1.5360718q-1.0181885 -0.7418823 -1.7565613 -1.9934387q-0.45254517 -0.76708984 -0.56204224 -1.5369263q-0.1015625 -0.7564087 0.12753296 -1.2906189q0.2505188 -0.528656 0.8868408 -1.0490723q0.44241333 -0.38790894 1.9363098 -1.2689514l4.6836243 -2.762268l-0.7701111 -1.3053894l2.261078 -1.3334961l0.7701111 1.3053894l2.1264648 -1.2541199l3.338562 1.876709l-3.7818909 2.2304382l1.1432495 1.9378967zm2.6087341 1.1008301l2.6244507 -1.547821l1.6752014 2.8395386l-2.6244507 1.547821l-1.6752014 -2.8395386zm-12.180115 7.183441l10.7265625 -6.3262024l1.6752014 2.839569l-10.7265625 6.326172l-1.6752014 -2.8395386zm9.191772 15.580536l-1.5561218 -2.6376648l1.5746765 -0.92871094q-1.3042297 -0.119659424 -2.2858276 -0.7380066q-0.96810913 -0.6262512 -1.5079956 -1.5413818q-1.0877075 -1.843689 -0.38528442 -4.0356445q0.71585083 -2.1999207 3.3806763 -3.7715454q2.7321167 -1.6113281 4.8995056 -1.1662903q2.1888123 0.45056152 3.3400269 2.4019165q1.0638733 1.8033142 0.34005737 3.9897766l5.329651 -3.1432495l1.6752014 2.8395386l-14.804565 8.731262zm1.1289673 -10.878632q-1.7227173 1.0159912 -2.2040405 1.9529114q-0.69869995 1.3372192 0.023773193 2.5618591q0.5795593 0.9824219 1.8054504 1.1845703q1.2393494 0.19421387 2.8947754 -0.7821045q1.8572998 -1.095398 2.2678528 -2.2445068q0.41848755 -1.1356812 -0.19284058 -2.1719055q-0.595459 -1.0093384 -1.8078918 -1.2194214q-1.1989746 -0.21801758 -2.7870789 0.7185974zm5.6534424 9.767395q1.413147 -0.83343506 3.137024 -0.9249878q1.731781 -0.078063965 3.1858826 0.7876587q1.4541016 0.86572266 2.3829956 2.4402466q1.4370117 2.4358215 0.76190186 4.9200745q-0.6536865 2.4897766 -3.0628052 3.910614q-2.4360046 1.436676 -4.9664917 0.80670166q-2.530487 -0.62997437 -3.9357605 -3.011963q-0.86538696 -1.4668884 -0.9998474 -3.2015991q-0.11306763 -1.729187 0.752655 -3.1830444q0.887146 -1.4483337 2.7444458 -2.5437012zm1.5533752 3.0020752q-1.5881042 0.9366455 -1.991394 2.1903381q-0.4033203 1.2536926 0.25564575 2.3706665q0.6510315 1.1035156 1.9435425 1.3570862q1.292511 0.25357056 2.9075317 -0.6989441q1.5746765 -0.9286804 1.9779663 -2.182373q0.4032898 -1.2536926 -0.24771118 -2.3572083q-0.65896606 -1.1169739 -1.951477 -1.3705444q-1.292511 -0.25357056 -2.894104 0.690979zm3.2263489 10.727203l2.1272888 2.5910645q-0.7312317 0.66708374 -0.83639526 1.4728394q-0.097229004 0.81921387 0.4902649 1.815094q0.6510315 1.1035156 1.38031 1.4171448q0.50494385 0.21014404 0.9894409 -0.07562256q0.32302856 -0.19049072 0.40582275 -0.5114136q0.0748291 -0.3343811 -0.18685913 -1.1777649q-1.2708435 -3.8761902 -1.1781616 -5.1643677q0.1071167 -1.7864685 1.6548462 -2.6992798q1.3997192 -0.8255005 2.992859 -0.2776184q1.6065979 0.539978 2.972168 2.8546753q1.2940979 2.1936035 1.1945496 3.6853638q-0.078186035 1.4973145 -1.239685 2.726532l-2.0779114 -2.384369q0.5372925 -0.5345459 0.5744629 -1.2095337q0.05065918 -0.68289185 -0.47332764 -1.571106q-0.65896606 -1.1169739 -1.2543335 -1.4188843q-0.41934204 -0.18804932 -0.7692566 0.018310547q-0.29611206 0.17462158 -0.34472656 0.5842285q-0.052368164 0.5569763 0.75653076 3.127411q0.8223877 2.5625 0.6141052 3.9007263q-0.22970581 1.3327026 -1.5890198 2.1343994q-1.4670105 0.86517334 -3.2606506 0.2541504q-1.7857361 -0.5975647 -3.2068787 -3.0065002q-1.2940979 -2.193573 -1.1600647 -3.9959412q0.1340332 -1.8023376 1.4246216 -3.0895386z" fill-rule="nonzero"></path><path fill="#f4cccc" d="m128.57043 403.64822l111.19574 -192.33858l111.19574 192.33858z" fill-rule="nonzero"></path><path stroke="#000000" stroke-width="2.0" stroke-linejoin="round" stroke-linecap="butt" d="m128.57043 403.64822l111.19574 -192.33858l111.19574 192.33858z" fill-rule="nonzero"></path><path fill="#000000" fill-opacity="0.0" d="m175.3646 309.5602l138.92914 0l0 66.99213l-138.92914 0z" fill-rule="nonzero"></path><path fill="#000000" d="m211.99713 323.40002l0 -17.046875l3.46875 0l0 14.15625l8.625 0l0 2.890625l-12.09375 0zm14.535156 -14.140625l0 -3.046875l3.296875 0l0 3.046875l-3.296875 0zm0 14.140625l0 -12.453125l3.296875 0l0 12.453125l-3.296875 0zm6.3710938 0.828125l3.765625 0.453125q0.09375 0.65625 0.421875 0.90625q0.46875 0.34375 1.484375 0.34375q1.28125 0 1.9375 -0.390625q0.421875 -0.25 0.65625 -0.828125q0.140625 -0.40625 0.140625 -1.515625l0 -1.8125q-1.46875 2.015625 -3.71875 2.015625q-2.515625 0 -3.96875 -2.125q-1.15625 -1.671875 -1.15625 -4.171875q0 -3.125 1.5 -4.78125q1.515625 -1.65625 3.75 -1.65625q2.3125 0 3.8125 2.03125l0 -1.75l3.078125 0l0 11.171875q0 2.203125 -0.359375 3.296875q-0.359375 1.09375 -1.015625 1.703125q-0.65625 0.625 -1.765625 0.96875q-1.09375 0.359375 -2.765625 0.359375q-3.15625 0 -4.484375 -1.078125q-1.328125 -1.078125 -1.328125 -2.75q0 -0.15625 0.015625 -0.390625zm2.9375 -7.3125q0 1.984375 0.765625 2.90625q0.765625 0.921875 1.890625 0.921875q1.21875 0 2.046875 -0.9375q0.828125 -0.953125 0.828125 -2.8125q0 -1.921875 -0.796875 -2.859375q-0.796875 -0.9375 -2.015625 -0.9375q-1.1875 0 -1.953125 0.921875q-0.765625 0.90625 -0.765625 2.796875zm14.488281 -2.171875l-2.984375 -0.53125q0.5 -1.8125 1.71875 -2.671875q1.234375 -0.875 3.671875 -0.875q2.203125 0 3.28125 0.53125q1.078125 0.515625 1.515625 1.328125q0.4375 0.796875 0.4375 2.9375l-0.03125 3.84375q0 1.640625 0.15625 2.421875q0.15625 0.78125 0.59375 1.671875l-3.265625 0q-0.125 -0.328125 -0.3125 -0.96875q-0.078125 -0.296875 -0.125 -0.390625q-0.84375 0.8125 -1.8125 1.234375q-0.953125 0.40625 -2.03125 0.40625q-1.921875 0 -3.03125 -1.046875q-1.109375 -1.046875 -1.109375 -2.640625q0 -1.046875 0.5 -1.875q0.5 -0.828125 1.40625 -1.265625q0.921875 -0.4375 2.625 -0.765625q2.3125 -0.4375 3.203125 -0.8125l0 -0.328125q0 -0.953125 -0.46875 -1.34375q-0.46875 -0.40625 -1.765625 -0.40625q-0.890625 0 -1.390625 0.34375q-0.484375 0.34375 -0.78125 1.203125zm4.40625 2.671875q-0.640625 0.21875 -2.015625 0.515625q-1.359375 0.28125 -1.78125 0.5625q-0.640625 0.46875 -0.640625 1.171875q0 0.6875 0.515625 1.1875q0.515625 0.5 1.3125 0.5q0.890625 0 1.6875 -0.578125q0.609375 -0.453125 0.796875 -1.09375q0.125 -0.421875 0.125 -1.609375l0 -0.65625zm5.3164062 2.4375l3.3125 -0.515625q0.203125 0.96875 0.84375 1.46875q0.65625 0.5 1.8125 0.5q1.28125 0 1.921875 -0.46875q0.4375 -0.328125 0.4375 -0.890625q0 -0.375 -0.234375 -0.609375q-0.25 -0.234375 -1.109375 -0.4375q-3.984375 -0.875 -5.046875 -1.609375q-1.484375 -1.0 -1.484375 -2.796875q0 -1.625 1.28125 -2.71875q1.28125 -1.109375 3.96875 -1.109375q2.546875 0 3.78125 0.84375q1.25 0.828125 1.71875 2.453125l-3.109375 0.578125q-0.1875 -0.734375 -0.75 -1.109375q-0.5625 -0.390625 -1.59375 -0.390625q-1.296875 0 -1.859375 0.359375q-0.375 0.265625 -0.375 0.671875q0 0.34375 0.328125 0.59375q0.453125 0.328125 3.078125 0.9375q2.625 0.59375 3.671875 1.453125q1.03125 0.875 1.03125 2.453125q0 1.703125 -1.4375 2.9375q-1.421875 1.234375 -4.21875 1.234375q-2.546875 0 -4.03125 -1.03125q-1.484375 -1.03125 -1.9375 -2.796875zm14.425781 0.25l3.296875 0l0 2.359375q0 1.4375 -0.25 2.25q-0.25 0.828125 -0.9375 1.484375q-0.671875 0.65625 -1.734375 1.03125l-0.640625 -1.359375q1.0 -0.328125 1.421875 -0.90625q0.421875 -0.5625 0.4375 -1.5625l-1.59375 0l0 -3.296875z" fill-rule="nonzero"></path><path fill="#000000" d="m216.05768 342.22815l-3.25 0.578125q-0.15625 -0.96875 -0.75 -1.453125q-0.578125 -0.5 -1.5 -0.5q-1.234375 0 -1.96875 0.859375q-0.71875 0.84375 -0.71875 2.828125q0 2.21875 0.734375 3.140625q0.75 0.90625 2.0 0.90625q0.9375 0 1.53125 -0.53125q0.609375 -0.53125 0.84375 -1.828125l3.234375 0.546875q-0.5 2.21875 -1.9375 3.359375q-1.421875 1.140625 -3.828125 1.140625q-2.71875 0 -4.34375 -1.71875q-1.625 -1.734375 -1.625 -4.78125q0 -3.078125 1.625 -4.796875q1.625 -1.71875 4.40625 -1.71875q2.28125 0 3.609375 0.984375q1.34375 0.984375 1.9375 2.984375zm2.4882812 8.765625l0 -17.1875l3.296875 0l0 17.1875l-3.296875 0zm14.871094 0l0 -1.859375q-0.6875 0.984375 -1.796875 1.5625q-1.109375 0.578125 -2.328125 0.578125q-1.265625 0 -2.265625 -0.546875q-0.984375 -0.5625 -1.4375 -1.546875q-0.4375 -1.0 -0.4375 -2.765625l0 -7.875l3.296875 0l0 5.71875q0 2.625 0.171875 3.21875q0.1875 0.59375 0.65625 0.9375q0.484375 0.34375 1.234375 0.34375q0.84375 0 1.5 -0.453125q0.671875 -0.46875 0.921875 -1.15625q0.25 -0.6875 0.25 -3.359375l0 -5.25l3.28125 0l0 12.453125l-3.046875 0zm6.3164062 0l0 -17.1875l3.296875 0l0 6.1875q1.53125 -1.734375 3.609375 -1.734375q2.28125 0 3.765625 1.65625q1.484375 1.640625 1.484375 4.71875q0 3.1875 -1.515625 4.921875q-1.515625 1.71875 -3.6875 1.71875q-1.0625 0 -2.109375 -0.53125q-1.03125 -0.53125 -1.78125 -1.578125l0 1.828125l-3.0625 0zm3.28125 -6.5q0 1.9375 0.609375 2.859375q0.84375 1.3125 2.265625 1.3125q1.09375 0 1.859375 -0.921875q0.765625 -0.9375 0.765625 -2.9375q0 -2.140625 -0.78125 -3.078125q-0.765625 -0.9375 -1.96875 -0.9375q-1.1875 0 -1.96875 0.921875q-0.78125 0.90625 -0.78125 2.78125zm10.363281 2.953125l3.3125 -0.515625q0.203125 0.96875 0.84375 1.46875q0.65625 0.5 1.8125 0.5q1.28125 0 1.921875 -0.46875q0.4375 -0.328125 0.4375 -0.890625q0 -0.375 -0.234375 -0.609375q-0.25 -0.234375 -1.109375 -0.4375q-3.984375 -0.875 -5.046875 -1.609375q-1.484375 -1.0 -1.484375 -2.796875q0 -1.625 1.28125 -2.71875q1.28125 -1.109375 3.96875 -1.109375q2.546875 0 3.78125 0.84375q1.25 0.828125 1.71875 2.453125l-3.109375 0.578125q-0.1875 -0.734375 -0.75 -1.109375q-0.5625 -0.390625 -1.59375 -0.390625q-1.296875 0 -1.859375 0.359375q-0.375 0.265625 -0.375 0.671875q0 0.34375 0.328125 0.59375q0.453125 0.328125 3.078125 0.9375q2.625 0.59375 3.671875 1.453125q1.03125 0.875 1.03125 2.453125q0 1.703125 -1.4375 2.9375q-1.421875 1.234375 -4.21875 1.234375q-2.546875 0 -4.03125 -1.03125q-1.484375 -1.03125 -1.9375 -2.796875zm19.625 -8.90625l3.5 0l2.96875 8.84375l2.90625 -8.84375l3.421875 0l-4.40625 11.984375l-0.78125 2.171875q-0.4375 1.09375 -0.828125 1.65625q-0.390625 0.578125 -0.90625 0.9375q-0.5 0.359375 -1.25 0.546875q-0.734375 0.203125 -1.671875 0.203125q-0.953125 0 -1.875 -0.1875l-0.28125 -2.578125q0.765625 0.140625 1.390625 0.140625q1.140625 0 1.6875 -0.671875q0.5625 -0.671875 0.859375 -1.71875l-4.734375 -12.484375z" fill-rule="nonzero"></path><path fill="#000000" d="m189.13971 364.4469l0 -3.046875l3.296875 0l0 3.046875l-3.296875 0zm3.296875 1.6875l0 12.0625q0 2.390625 -0.3125 3.359375q-0.3125 0.984375 -1.203125 1.53125q-0.875 0.546875 -2.25 0.546875q-0.5 0 -1.078125 -0.09375q-0.5625 -0.078125 -1.21875 -0.25l0.578125 -2.8125q0.234375 0.046875 0.453125 0.078125q0.203125 0.03125 0.375 0.03125q0.5 0 0.8125 -0.21875q0.328125 -0.21875 0.4375 -0.53125q0.109375 -0.296875 0.109375 -1.828125l0 -11.875l3.296875 0zm11.636719 12.453125l0 -1.859375q-0.6875 0.984375 -1.796875 1.5625q-1.109375 0.578125 -2.328125 0.578125q-1.265625 0 -2.265625 -0.546875q-0.984375 -0.5625 -1.4375 -1.546875q-0.4375 -1.0 -0.4375 -2.765625l0 -7.875l3.296875 0l0 5.71875q0 2.625 0.171875 3.21875q0.1875 0.59375 0.65625 0.9375q0.484375 0.34375 1.234375 0.34375q0.84375 0 1.5 -0.453125q0.671875 -0.46875 0.921875 -1.15625q0.25 -0.6875 0.25 -3.359375l0 -5.25l3.28125 0l0 12.453125l-3.046875 0zm6.1601562 0.828125l3.765625 0.453125q0.09375 0.65625 0.421875 0.90625q0.46875 0.34375 1.484375 0.34375q1.28125 0 1.9375 -0.390625q0.421875 -0.25 0.65625 -0.828125q0.140625 -0.40625 0.140625 -1.515625l0 -1.8125q-1.46875 2.015625 -3.71875 2.015625q-2.515625 0 -3.96875 -2.125q-1.15625 -1.671875 -1.15625 -4.171875q0 -3.125 1.5 -4.78125q1.515625 -1.65625 3.75 -1.65625q2.3125 0 3.8125 2.03125l0 -1.75l3.078125 0l0 11.171875q0 2.203125 -0.359375 3.296875q-0.359375 1.09375 -1.015625 1.703125q-0.65625 0.625 -1.765625 0.96875q-1.09375 0.359375 -2.765625 0.359375q-3.15625 0 -4.484375 -1.078125q-1.328125 -1.078125 -1.328125 -2.75q0 -0.15625 0.015625 -0.390625zm2.9375 -7.3125q0 1.984375 0.765625 2.90625q0.765625 0.921875 1.890625 0.921875q1.21875 0 2.046875 -0.9375q0.828125 -0.953125 0.828125 -2.8125q0 -1.921875 -0.796875 -2.859375q-0.796875 -0.9375 -2.015625 -0.9375q-1.1875 0 -1.953125 0.921875q-0.765625 0.90625 -0.765625 2.796875zm14.488281 -2.171875l-2.984375 -0.53125q0.5 -1.8125 1.71875 -2.671875q1.234375 -0.875 3.671875 -0.875q2.203125 0 3.28125 0.53125q1.078125 0.515625 1.515625 1.328125q0.4375 0.796875 0.4375 2.9375l-0.03125 3.84375q0 1.640625 0.15625 2.421875q0.15625 0.78125 0.59375 1.671875l-3.265625 0q-0.125 -0.328125 -0.3125 -0.96875q-0.078125 -0.296875 -0.125 -0.390625q-0.84375 0.8125 -1.8125 1.234375q-0.953125 0.40625 -2.03125 0.40625q-1.921875 0 -3.03125 -1.046875q-1.109375 -1.046875 -1.109375 -2.640625q0 -1.046875 0.5 -1.875q0.5 -0.828125 1.40625 -1.265625q0.921875 -0.4375 2.625 -0.765625q2.3125 -0.4375 3.203125 -0.8125l0 -0.328125q0 -0.953125 -0.46875 -1.34375q-0.46875 -0.40625 -1.765625 -0.40625q-0.890625 0 -1.390625 0.34375q-0.484375 0.34375 -0.78125 1.203125zm4.40625 2.671875q-0.640625 0.21875 -2.015625 0.515625q-1.359375 0.28125 -1.78125 0.5625q-0.640625 0.46875 -0.640625 1.171875q0 0.6875 0.515625 1.1875q0.515625 0.5 1.3125 0.5q0.890625 0 1.6875 -0.578125q0.609375 -0.453125 0.796875 -1.09375q0.125 -0.421875 0.125 -1.609375l0 -0.65625zm17.894531 5.984375l-3.0625 0l0 -1.828125q-0.765625 1.0625 -1.796875 1.59375q-1.03125 0.515625 -2.09375 0.515625q-2.140625 0 -3.671875 -1.71875q-1.53125 -1.734375 -1.53125 -4.828125q0 -3.171875 1.484375 -4.8125q1.5 -1.65625 3.765625 -1.65625q2.09375 0 3.609375 1.734375l0 -6.1875l3.296875 0l0 17.1875zm-8.796875 -6.5q0 2.0 0.5625 2.890625q0.796875 1.28125 2.21875 1.28125q1.140625 0 1.9375 -0.953125q0.796875 -0.96875 0.796875 -2.890625q0 -2.15625 -0.78125 -3.09375q-0.765625 -0.9375 -1.96875 -0.9375q-1.171875 0 -1.96875 0.9375q-0.796875 0.921875 -0.796875 2.765625zm11.285156 0.09375q0 -1.640625 0.796875 -3.171875q0.8125 -1.53125 2.296875 -2.34375q1.484375 -0.8125 3.3125 -0.8125q2.828125 0 4.625 1.84375q1.8125 1.828125 1.8125 4.625q0 2.828125 -1.828125 4.6875q-1.828125 1.859375 -4.59375 1.859375q-1.703125 0 -3.265625 -0.765625q-1.546875 -0.78125 -2.359375 -2.265625q-0.796875 -1.5 -0.796875 -3.65625zm3.375 0.1875q0 1.84375 0.875 2.828125q0.875 0.984375 2.171875 0.984375q1.28125 0 2.15625 -0.984375q0.875 -0.984375 0.875 -2.859375q0 -1.828125 -0.875 -2.8125q-0.875 -0.984375 -2.15625 -0.984375q-1.296875 0 -2.171875 0.984375q-0.875 0.984375 -0.875 2.84375zm15.191406 6.21875l-3.296875 0l0 -12.453125l3.0625 0l0 1.78125q0.78125 -1.265625 1.40625 -1.65625q0.640625 -0.40625 1.4375 -0.40625q1.125 0 2.15625 0.625l-1.015625 2.875q-0.828125 -0.546875 -1.546875 -0.546875q-0.6875 0 -1.171875 0.390625q-0.484375 0.375 -0.765625 1.375q-0.265625 1.0 -0.265625 4.171875l0 3.84375zm13.402344 -3.96875l3.28125 0.5625q-0.640625 1.796875 -2.015625 2.75q-1.359375 0.9375 -3.40625 0.9375q-3.25 0 -4.796875 -2.125q-1.234375 -1.703125 -1.234375 -4.28125q0 -3.09375 1.609375 -4.84375q1.625 -1.765625 4.09375 -1.765625q2.78125 0 4.375 1.84375q1.609375 1.828125 1.546875 5.609375l-8.25 0q0.03125 1.46875 0.796875 2.28125q0.765625 0.8125 1.890625 0.8125q0.78125 0 1.296875 -0.421875q0.53125 -0.421875 0.8125 -1.359375zm0.1875 -3.328125q-0.046875 -1.421875 -0.75 -2.15625q-0.703125 -0.75 -1.703125 -0.75q-1.078125 0 -1.78125 0.78125q-0.703125 0.78125 -0.6875 2.125l4.921875 0zm4.7851562 3.75l3.3125 -0.515625q0.203125 0.96875 0.84375 1.46875q0.65625 0.5 1.8125 0.5q1.28125 0 1.921875 -0.46875q0.4375 -0.328125 0.4375 -0.890625q0 -0.375 -0.234375 -0.609375q-0.25 -0.234375 -1.109375 -0.4375q-3.984375 -0.875 -5.046875 -1.609375q-1.484375 -1.0 -1.484375 -2.796875q0 -1.625 1.28125 -2.71875q1.28125 -1.109375 3.96875 -1.109375q2.546875 0 3.78125 0.84375q1.25 0.828125 1.71875 2.453125l-3.109375 0.578125q-0.1875 -0.734375 -0.75 -1.109375q-0.5625 -0.390625 -1.59375 -0.390625q-1.296875 0 -1.859375 0.359375q-0.375 0.265625 -0.375 0.671875q0 0.34375 0.328125 0.59375q0.453125 0.328125 3.078125 0.9375q2.625 0.59375 3.671875 1.453125q1.03125 0.875 1.03125 2.453125q0 1.703125 -1.4375 2.9375q-1.421875 1.234375 -4.21875 1.234375q-2.546875 0 -4.03125 -1.03125q-1.484375 -1.03125 -1.9375 -2.796875z" fill-rule="nonzero"></path></g></svg>

