<?xml version="1.0" standalone="yes"?>

<svg version="1.1" viewBox="0.0 0.0 490.0 433.0" fill="none" stroke="none" stroke-linecap="square" stroke-miterlimit="10" xmlns="http://www.w3.org/2000/svg" xmlns:xlink="http://www.w3.org/1999/xlink"><clipPath id="p.0"><path d="m0 0l490.0 0l0 433.0l-490.0 0l0 -433.0z" clip-rule="nonzero"></path></clipPath><g clip-path="url(#p.0)"><path fill="#000000" fill-opacity="0.0" d="m0 0l490.41733 0l0 433.39108l-490.41733 0z" fill-rule="nonzero"></path><path fill="#d9ead3" d="m26.261639 403.0004l219.1256 -379.78772l219.12558 379.78772z" fill-rule="nonzero"></path><path stroke="#000000" stroke-width="2.0" stroke-linejoin="round" stroke-linecap="butt" d="m26.261639 403.0004l219.1256 -379.78772l219.12558 379.78772z" fill-rule="nonzero"></path><path fill="#000000" fill-opacity="0.0" d="m179.79913 361.80228l131.17621 0l0 32.50943l-131.17621 0z" fill-rule="nonzero"></path><path fill="#000000" d="m195.75443 368.80698l3.46875 0l0 9.3125q0 2.21875 0.140625 2.875q0.21875 1.046875 1.046875 1.6875q0.84375 0.640625 2.296875 0.640625q1.484375 0 2.234375 -0.59375q0.75 -0.609375 0.890625 -1.484375q0.15625 -0.890625 0.15625 -2.921875l0 -9.515625l3.46875 0l0 9.03125q0 3.09375 -0.28125 4.375q-0.28125 1.265625 -1.046875 2.15625q-0.75 0.875 -2.015625 1.40625q-1.265625 0.515625 -3.296875 0.515625q-2.46875 0 -3.734375 -0.5625q-1.265625 -0.578125 -2.015625 -1.484375q-0.734375 -0.90625 -0.96875 -1.90625q-0.34375 -1.484375 -0.34375 -4.359375l0 -9.171875zm16.175781 13.640625l3.3125 -0.515625q0.203125 0.96875 0.84375 1.46875q0.65625 0.5 1.8125 0.5q1.28125 0 1.921875 -0.46875q0.4375 -0.328125 0.4375 -0.890625q0 -0.375 -0.234375 -0.609375q-0.25 -0.234375 -1.109375 -0.4375q-3.984375 -0.875 -5.046875 -1.609375q-1.484375 -1.0 -1.484375 -2.796875q0 -1.625 1.28125 -2.71875q1.28125 -1.109375 3.96875 -1.109375q2.546875 0 3.78125 0.84375q1.25 0.828125 1.71875 2.453125l-3.109375 0.578125q-0.1875 -0.734375 -0.75 -1.109375q-0.5625 -0.390625 -1.59375 -0.390625q-1.296875 0 -1.859375 0.359375q-0.375 0.265625 -0.375 0.671875q0 0.34375 0.328125 0.59375q0.453125 0.328125 3.078125 0.9375q2.625 0.59375 3.671875 1.453125q1.03125 0.875 1.03125 2.453125q0 1.703125 -1.4375 2.9375q-1.421875 1.234375 -4.21875 1.234375q-2.546875 0 -4.03125 -1.03125q-1.484375 -1.03125 -1.9375 -2.796875zm22.707031 3.546875l0 -1.859375q-0.6875 0.984375 -1.796875 1.5625q-1.109375 0.578125 -2.328125 0.578125q-1.265625 0 -2.265625 -0.546875q-0.984375 -0.5625 -1.4375 -1.546875q-0.4375 -1.0 -0.4375 -2.765625l0 -7.875l3.296875 0l0 5.71875q0 2.625 0.171875 3.21875q0.1875 0.59375 0.65625 0.9375q0.484375 0.34375 1.234375 0.34375q0.84375 0 1.5 -0.453125q0.671875 -0.46875 0.921875 -1.15625q0.25 -0.6875 0.25 -3.359375l0 -5.25l3.28125 0l0 12.453125l-3.046875 0zm8.925781 -8.65625l-2.984375 -0.53125q0.5 -1.8125 1.71875 -2.671875q1.234375 -0.875 3.671875 -0.875q2.203125 0 3.28125 0.53125q1.078125 0.515625 1.515625 1.328125q0.4375 0.796875 0.4375 2.9375l-0.03125 3.84375q0 1.640625 0.15625 2.421875q0.15625 0.78125 0.59375 1.671875l-3.265625 0q-0.125 -0.328125 -0.3125 -0.96875q-0.078125 -0.296875 -0.125 -0.390625q-0.84375 0.8125 -1.8125 1.234375q-0.953125 0.40625 -2.03125 0.40625q-1.921875 0 -3.03125 -1.046875q-1.109375 -1.046875 -1.109375 -2.640625q0 -1.046875 0.5 -1.875q0.5 -0.828125 1.40625 -1.265625q0.921875 -0.4375 2.625 -0.765625q2.3125 -0.4375 3.203125 -0.8125l0 -0.328125q0 -0.953125 -0.46875 -1.34375q-0.46875 -0.40625 -1.765625 -0.40625q-0.890625 0 -1.390625 0.34375q-0.484375 0.34375 -0.78125 1.203125zm4.40625 2.671875q-0.640625 0.21875 -2.015625 0.515625q-1.359375 0.28125 -1.78125 0.5625q-0.640625 0.46875 -0.640625 1.171875q0 0.6875 0.515625 1.1875q0.515625 0.5 1.3125 0.5q0.890625 0 1.6875 -0.578125q0.609375 -0.453125 0.796875 -1.09375q0.125 -0.421875 0.125 -1.609375l0 -0.65625zm9.628906 5.984375l-3.296875 0l0 -12.453125l3.0625 0l0 1.78125q0.78125 -1.265625 1.40625 -1.65625q0.640625 -0.40625 1.4375 -0.40625q1.125 0 2.15625 0.625l-1.015625 2.875q-0.828125 -0.546875 -1.546875 -0.546875q-0.6875 0 -1.171875 0.390625q-0.484375 0.375 -0.765625 1.375q-0.265625 1.0 -0.265625 4.171875l0 3.84375zm6.1835938 -14.140625l0 -3.046875l3.296875 0l0 3.046875l-3.296875 0zm0 14.140625l0 -12.453125l3.296875 0l0 12.453125l-3.296875 0zm5.9179688 -6.40625q0 -1.640625 0.796875 -3.171875q0.8125 -1.53125 2.296875 -2.34375q1.484375 -0.8125 3.3125 -0.8125q2.828125 0 4.625 1.84375q1.8125 1.828125 1.8125 4.625q0 2.828125 -1.828125 4.6875q-1.828125 1.859375 -4.59375 1.859375q-1.703125 0 -3.265625 -0.765625q-1.546875 -0.78125 -2.359375 -2.265625q-0.796875 -1.5 -0.796875 -3.65625zm3.375 0.1875q0 1.84375 0.875 2.828125q0.875 0.984375 2.171875 0.984375q1.28125 0 2.15625 -0.984375q0.875 -0.984375 0.875 -2.859375q0 -1.828125 -0.875 -2.8125q-0.875 -0.984375 -2.15625 -0.984375q-1.296875 0 -2.171875 0.984375q-0.875 0.984375 -0.875 2.84375zm10.878906 2.671875l3.3125 -0.515625q0.203125 0.96875 0.84375 1.46875q0.65625 0.5 1.8125 0.5q1.28125 0 1.921875 -0.46875q0.4375 -0.328125 0.4375 -0.890625q0 -0.375 -0.234375 -0.609375q-0.25 -0.234375 -1.109375 -0.4375q-3.984375 -0.875 -5.046875 -1.609375q-1.484375 -1.0 -1.484375 -2.796875q0 -1.625 1.28125 -2.71875q1.28125 -1.109375 3.96875 -1.109375q2.546875 0 3.78125 0.84375q1.25 0.828125 1.71875 2.453125l-3.109375 0.578125q-0.1875 -0.734375 -0.75 -1.109375q-0.5625 -0.390625 -1.59375 -0.390625q-1.296875 0 -1.859375 0.359375q-0.375 0.265625 -0.375 0.671875q0 0.34375 0.328125 0.59375q0.453125 0.328125 3.078125 0.9375q2.625 0.59375 3.671875 1.453125q1.03125 0.875 1.03125 2.453125q0 1.703125 -1.4375 2.9375q-1.421875 1.234375 -4.21875 1.234375q-2.546875 0 -4.03125 -1.03125q-1.484375 -1.03125 -1.9375 -2.796875z" fill-rule="nonzero"></path><path fill="#fce5cd" d="m61.20175 343.52292l184.65762 -319.292l184.65762 319.292z" fill-rule="nonzero"></path><path stroke="#000000" stroke-width="2.0" stroke-linejoin="round" stroke-linecap="butt" d="m61.20175 343.52292l184.65762 -319.292l184.65762 319.292z" fill-rule="nonzero"></path><path fill="#000000" fill-opacity="0.0" d="m280.60388 103.37294l96.06915 162.84227l-40.359955 23.803009l-96.06914 -162.84225z" fill-rule="nonzero"></path><path fill="#000000" d="m278.79086 162.0288l14.804596 -8.731262l6.4705505 10.967957l-2.5033264 1.4763794l-4.708008 -7.980377l-3.2839355 1.9367523l4.3825073 7.428604l-2.4898376 1.4684448l-4.382538 -7.428604l-4.0375977 2.381256l4.874756 8.26297l-2.4898682 1.4684448l-6.6372986 -11.250565zm9.85672 16.707626l8.17804 -10.646088l1.7625427 2.9875946l-4.2867737 5.2492065l-1.4890137 1.6581726q0.83483887 -0.18397522 1.1033325 -0.25161743q0.52352905 -0.12736511 1.0763855 -0.23574829l6.6844788 -1.1850128l1.7228394 2.9203033l-13.243347 2.060135l-1.5084839 -2.5569458zm12.129944 12.750244l1.1827698 3.111847q-1.8732605 0.36105347 -3.3929138 -0.33903503q-1.4982605 -0.6945648 -2.5382996 -2.4575043q-1.6513977 -2.799179 -0.6069946 -5.2109833q0.8397827 -1.9283447 3.0604553 -3.238037q2.6648254 -1.5716248 4.9899597 -1.0744934q2.346527 0.502655 3.6009521 2.628952q1.413208 2.395462 0.6348877 4.7047577q-0.7569275 2.3148193 -4.045685 4.1818695l-4.191986 -7.1056213q-1.2492371 0.7730408 -1.5600586 1.8452148q-0.31082153 1.0721741 0.26083374 2.0411224q0.39694214 0.6728821 1.0223389 0.90267944q0.6333313 0.24324036 1.5837402 0.009231567zm2.961975 -1.5292053q1.2009277 -0.76268005 1.4762268 -1.741333q0.2887268 -0.9866028 -0.21939087 -1.8478851q-0.5477905 -0.9285736 -1.5780029 -1.1372986q-1.0302124 -0.20870972 -2.179718 0.48736572l2.500885 4.239151zm2.4897766 18.580841l-1.6752014 -2.8395538l5.477661 -3.2305603q1.7361755 -1.023941 2.1230164 -1.5060425q0.40820312 -0.4765625 0.44473267 -1.0604401q0.044433594 -0.5704193 -0.28900146 -1.1356354q-0.43667603 -0.74017334 -1.1897583 -1.0941772q-0.7451477 -0.3405609 -1.5451355 -0.15899658q-0.786499 0.1736145 -2.5765076 1.2292938l-4.8585815 2.865448l-1.6752014 -2.8395538l10.7265625 -6.3262024l1.5561218 2.6376953l-1.5746765 0.9286957q2.6426392 0.3280182 3.8970337 2.4543304q0.5557556 0.94203186 0.65838623 1.9154816q0.12402344 0.97898865 -0.16268921 1.692276q-0.28671265 0.71328735 -0.87231445 1.258194q-0.564209 0.5504303 -1.8023987 1.2806854l-6.6620483 3.929062zm15.325439 1.4691315l-2.261078 1.3334961l-1.1432495 -1.9378967l-4.3202515 2.547943q-1.3189392 0.7778778 -1.502533 0.9587097q-0.18356323 0.18083191 -0.22045898 0.45655823q-0.01550293 0.28123474 0.1512146 0.5638428q0.23025513 0.39027405 0.94403076 0.9851532l-2.0508728 1.5360413q-1.0181885 -0.7418518 -1.7565613 -1.9934082q-0.45251465 -0.76708984 -0.5620117 -1.5369568q-0.1015625 -0.7564087 0.12753296 -1.2905884q0.25048828 -0.5286865 0.8868408 -1.0490875q0.4423828 -0.38789368 1.9363098 -1.2689667l4.6836243 -2.7622528l-0.7701416 -1.3053894l2.261078 -1.3334961l0.7701111 1.3053894l2.1264648 -1.2541351l3.338562 1.876709l-3.7818909 2.2304382l1.14328 1.9378967zm-4.4344482 4.3839417q1.4131775 -0.8334503 3.137024 -0.9249878q1.7318115 -0.07807922 3.185913 0.78764343q1.454071 0.86572266 2.3829956 2.4402618q1.4370117 2.4358368 0.76190186 4.9200897q-0.6536865 2.4897614 -3.0628052 3.9105835q-2.4360352 1.4366913 -4.966522 0.8067169q-2.530487 -0.62997437 -3.93573 -3.0119781q-0.86538696 -1.4668732 -0.9998474 -3.2015839q-0.11306763 -1.7291718 0.752655 -3.1830292q0.8871155 -1.448349 2.7444153 -2.5437164zm1.5534058 3.0020905q-1.5881348 0.93663025 -1.9914246 2.1903076q-0.4032898 1.2536926 0.25567627 2.3706818q0.6510315 1.1035156 1.9435425 1.3570862q1.2924805 0.2535553 2.9075317 -0.6989441q1.5746765 -0.9286804 1.9779663 -2.182373q0.4032898 -1.2536926 -0.2477417 -2.3572083q-0.65896606 -1.1169891 -1.9514465 -1.3705597q-1.292511 -0.2535553 -2.894104 0.6910095zm3.2263489 10.727188l2.1272583 2.5910645q-0.7312012 0.66708374 -0.83636475 1.4728394q-0.097229004 0.8192291 0.4902649 1.815094q0.6510315 1.1035156 1.38031 1.41716q0.50494385 0.21012878 0.9894409 -0.07562256q0.32299805 -0.19050598 0.40579224 -0.51142883q0.07485962 -0.33439636 -0.18682861 -1.1777496q-1.2708435 -3.8761902 -1.1781616 -5.1643677q0.1071167 -1.7864685 1.6548462 -2.699295q1.3997192 -0.8255005 2.992859 -0.27760315q1.6065979 0.53996277 2.9721375 2.8546753q1.2941284 2.1935883 1.1945801 3.6853638q-0.078186035 1.4972992 -1.239685 2.726532l-2.0779114 -2.3843842q0.5372925 -0.5345459 0.5744629 -1.2095184q0.05065918 -0.68292236 -0.47332764 -1.5711212q-0.65896606 -1.1169739 -1.2543335 -1.4188843q-0.41934204 -0.18804932 -0.7692871 0.018325806q-0.29608154 0.17462158 -0.34469604 0.5842285q-0.05239868 0.55696106 0.75653076 3.127411q0.8223877 2.5625 0.6141052 3.9007263q-0.22970581 1.3327026 -1.5890198 2.1343842q-1.4670105 0.8651886 -3.2606812 0.2541504q-1.7857056 -0.5975647 -3.2068481 -3.006485q-1.2941284 -2.1935883 -1.1600647 -3.9959412q0.1340332 -1.8023529 1.4246216 -3.0895538z" fill-rule="nonzero"></path><path fill="#fff2cc" d="m61.17934 343.51175l149.29066 -258.13892l149.29065 258.13892z" fill-rule="nonzero"></path><path stroke="#000000" stroke-width="2.0" stroke-linejoin="round" stroke-linecap="butt" d="m61.17934 343.51175l149.29066 -258.13892l149.29065 258.13892z" fill-rule="nonzero"></path><path fill="#000000" fill-opacity="0.0" d="m234.7858 151.17316l77.66931 131.65353l-32.629944 19.24411l-77.66928 -131.65355z" fill-rule="nonzero"></path><path fill="#000000" d="m226.96205 190.8096l14.804565 -8.731262l2.8264008 4.790909q1.6116943 2.731903 1.8671875 3.6877441q0.4177704 1.4769135 -0.19911194 2.9835663q-0.59550476 1.5121613 -2.372055 2.559906q-1.359314 0.8016968 -2.581726 0.8514557q-1.2144623 0.063201904 -2.2053528 -0.3863678q-0.97743225 -0.4575348 -1.5994263 -1.1428223q-0.8504791 -0.9496002 -2.0413818 -2.9682465l-1.1512146 -1.951355l-5.5853577 3.2940674l-1.7625275 -2.9875946zm14.063782 -4.267288l-4.199112 2.4765015l0.96066284 1.6283722q1.0479889 1.7763977 1.6261139 2.2335968q0.578125 0.4571991 1.2745819 0.49995422q0.6964569 0.042755127 1.3424835 -0.33825684q0.8075104 -0.47624207 1.0545349 -1.2568207q0.24700928 -0.7805786 -0.0471344 -1.5866699q-0.2098999 -0.60180664 -1.1626282 -2.2167206l-0.84950256 -1.4399567zm2.7647247 15.756622l-1.0588074 -2.8402863q1.8152618 -0.49009705 3.174759 0.123031616q1.3808899 0.61865234 2.6194305 2.7180328q1.1194458 1.897522 1.209671 3.0959778q0.10368347 1.1905212 -0.37387085 1.980072q-0.46409607 0.78163147 -2.3079376 1.8690643l-3.3267212 1.9257202q-1.4131622 0.83343506 -2.0066986 1.3648834q-0.5935364 0.5314636 -1.138382 1.3607178l-1.6593323 -2.8126526q0.21911621 -0.27433777 0.6756592 -0.76127625q0.21601868 -0.21809387 0.27294922 -0.3060913q-1.1285706 -0.31396484 -1.9841919 -0.934021q-0.8342285 -0.6145477 -1.3820496 -1.5431213q-0.976532 -1.6552887 -0.638504 -3.1425934q0.3380432 -1.4873047 1.7108307 -2.2969208q0.9017334 -0.5318146 1.8690948 -0.52186584q0.9673767 0.009963989 1.8047028 0.56825256q0.8452606 0.5717468 1.9932861 1.871933q1.5518646 1.7694855 2.327423 2.3460693l0.2826233 -0.16668701q0.8209839 -0.4841919 0.91926575 -1.0863647q0.11175537 -0.61009216 -0.5472107 -1.7270813q-0.45254517 -0.7670746 -1.0027008 -1.0231018q-0.5422058 -0.24255371 -1.4332886 -0.061691284zm-0.06253052 5.152359q-0.5139313 -0.44062805 -1.4683228 -1.4740906q-0.93296814 -1.0279388 -1.3895874 -1.2484131q-0.72927856 -0.3136444 -1.3349152 0.043548584q-0.5921936 0.34924316 -0.76086426 1.047348q-0.16868591 0.69810486 0.23622131 1.3844452q0.45254517 0.7670746 1.355423 1.159729q0.6999359 0.29466248 1.3470154 0.13072205q0.42689514 -0.106658936 1.4497681 -0.70991516l0.56526184 -0.33337402zm-0.26205444 11.333328l-1.6752167 -2.8395538l10.726593 -6.3262024l1.5561066 2.6376953l-1.5342865 0.9048767q1.4871216 0.029937744 2.141159 0.369812q0.67544556 0.3453827 1.0803528 1.031723q0.57162476 0.96894836 0.5572815 2.174652l-2.9924622 0.5857544q0.05026245 -0.9910736 -0.3149414 -1.6101227q-0.34933472 -0.59213257 -0.9319153 -0.81088257q-0.5691376 -0.22668457 -1.5733948 0.03907776q-0.99632263 0.27922058 -3.7284393 1.8905334l-3.3108368 1.9526367zm16.774384 3.9251404l-2.261078 1.3334961l-1.1432495 -1.9378967l-4.3202515 2.547943q-1.3189545 0.7778778 -1.502533 0.9587097q-0.18357849 0.18083191 -0.22047424 0.45654297q-0.01550293 0.28125 0.15122986 0.56385803q0.23023987 0.39027405 0.9440155 0.98513794l-2.0508575 1.5360565q-1.0181885 -0.74186707 -1.756546 -1.9934235q-0.45254517 -0.7670746 -0.56204224 -1.5369415q-0.1015625 -0.7564087 0.12753296 -1.2906036q0.25050354 -0.52867126 0.8868408 -1.0490875q0.44239807 -0.38787842 1.9363098 -1.2689514l4.6836243 -2.7622528l-0.7701111 -1.3053894l2.2610626 -1.3334961l0.7701111 1.3053894l2.1264648 -1.2541351l3.338562 1.876709l-3.7818909 2.2304382l1.14328 1.9378967zm2.6087036 1.1008301l2.6244507 -1.547821l1.6752014 2.8395538l-2.6244507 1.547821l-1.6752014 -2.8395538zm-12.180115 7.183441l10.7265625 -6.326187l1.6752014 2.8395538l-10.7265625 6.3262024l-1.6752014 -2.839569zm9.191772 15.580566l-1.5561218 -2.6376953l1.5746765 -0.9286957q-1.3042297 -0.11967468 -2.285797 -0.73799133q-0.96813965 -0.6262665 -1.5080261 -1.5413818q-1.0876923 -1.8437042 -0.38528442 -4.035675q0.71585083 -2.1999054 3.3806763 -3.7715302q2.7321167 -1.6113129 4.8995056 -1.1662903q2.1888123 0.45056152 3.3400269 2.4019165q1.0638733 1.8033142 0.34005737 3.9897766l5.329651 -3.1432648l1.6752014 2.8395538l-14.804565 8.731277zm1.1289673 -10.878647q-1.7227173 1.0160065 -2.2040405 1.9529114q-0.69869995 1.3372192 0.023773193 2.5618591q0.5795593 0.9824066 1.8054504 1.184555q1.2393494 0.19421387 2.8947754 -0.7821045q1.8572998 -1.0953827 2.2678528 -2.2445068q0.41848755 -1.1356812 -0.19284058 -2.1719055q-0.595459 -1.0093231 -1.8078613 -1.2194061q-1.1989746 -0.21803284 -2.7871094 0.7185974zm5.6534424 9.76738q1.4131775 -0.83343506 3.137024 -0.92497253q1.731781 -0.07807922 3.1858826 0.78764343q1.4541016 0.86572266 2.3829956 2.4402618q1.4370117 2.4358215 0.7619324 4.9200745q-0.65371704 2.4897766 -3.0628052 3.9105835q-2.4360352 1.4367065 -4.966522 0.8067322q-2.530487 -0.62997437 -3.9357605 -3.0119781q-0.86538696 -1.4668884 -0.9998474 -3.2015839q-0.11306763 -1.729187 0.75268555 -3.1830444q0.8871155 -1.4483337 2.7444153 -2.5437164zm1.5534058 3.0021057q-1.5881348 0.936615 -1.9914246 2.1903076q-0.4032898 1.2536926 0.25567627 2.3706665q0.651001 1.1035309 1.943512 1.3571014q1.292511 0.2535553 2.9075623 -0.6989441q1.574646 -0.9286957 1.9779358 -2.182373q0.4033203 -1.2536926 -0.24771118 -2.3572235q-0.65896606 -1.1169739 -1.951477 -1.3705444q-1.292511 -0.2535553 -2.8940735 0.6910095zm3.2263184 10.727158l2.1272888 2.591095q-0.7312317 0.66708374 -0.83639526 1.4728394q-0.097229004 0.81921387 0.4902954 1.8150635q0.651001 1.1035461 1.3802795 1.4171753q0.50494385 0.21011353 0.98947144 -0.07562256q0.32299805 -0.19049072 0.40579224 -0.5114441q0.0748291 -0.3343811 -0.18685913 -1.1777344q-1.2708435 -3.8761902 -1.1781616 -5.1643677q0.1071167 -1.7864685 1.6548767 -2.6992798q1.3996887 -0.8255005 2.9928284 -0.2776184q1.6065979 0.539978 2.972168 2.8546753q1.2940979 2.1936035 1.1945496 3.6853638q-0.07815552 1.4973145 -1.239685 2.726532l-2.0779114 -2.384369q0.5372925 -0.5345459 0.5744934 -1.2095337q0.050628662 -0.68292236 -0.47335815 -1.571106q-0.65896606 -1.1170044 -1.2543335 -1.4189148q-0.41934204 -0.1880188 -0.7692566 0.018341064q-0.29611206 0.17462158 -0.34472656 0.5842285q-0.052368164 0.5569763 0.75653076 3.127411q0.8223877 2.5625 0.6141052 3.9007263q-0.22970581 1.3327026 -1.5890198 2.1343994q-1.4670105 0.86517334 -3.2606506 0.2541504q-1.7857361 -0.5975952 -3.2068787 -3.0065002q-1.2940979 -2.193573 -1.1600647 -3.9959412q0.1340332 -1.8023376 1.4246216 -3.089569z" fill-rule="nonzero"></path><path fill="#f4cccc" d="m61.179356 343.51175l111.19574 -192.33858l111.19574 192.33858z" fill-rule="nonzero"></path><path stroke="#000000" stroke-width="2.0" stroke-linejoin="round" stroke-linecap="butt" d="m61.179356 343.51175l111.19574 -192.33858l111.19574 192.33858z" fill-rule="nonzero"></path><path fill="#000000" fill-opacity="0.0" d="m107.973526 249.42374l138.92914 0l0 66.99213l-138.92914 0z" fill-rule="nonzero"></path><path fill="#000000" d="m144.60606 263.26355l0 -17.046875l3.46875 0l0 14.15625l8.625 0l0 2.890625l-12.09375 0zm14.535156 -14.140625l0 -3.046875l3.296875 0l0 3.046875l-3.296875 0zm0 14.140625l0 -12.453125l3.296875 0l0 12.453125l-3.296875 0zm6.3710938 0.828125l3.765625 0.453125q0.09375 0.65625 0.421875 0.90625q0.46875 0.34375 1.484375 0.34375q1.28125 0 1.9375 -0.390625q0.421875 -0.25 0.65625 -0.828125q0.140625 -0.40625 0.140625 -1.515625l0 -1.8125q-1.46875 2.015625 -3.71875 2.015625q-2.515625 0 -3.96875 -2.125q-1.15625 -1.671875 -1.15625 -4.171875q0 -3.125 1.5 -4.78125q1.515625 -1.65625 3.75 -1.65625q2.3125 0 3.8125 2.03125l0 -1.75l3.078125 0l0 11.171875q0 2.203125 -0.359375 3.296875q-0.359375 1.09375 -1.015625 1.703125q-0.65625 0.625 -1.765625 0.96875q-1.09375 0.359375 -2.765625 0.359375q-3.15625 0 -4.484375 -1.078125q-1.328125 -1.078125 -1.328125 -2.75q0 -0.15625 0.015625 -0.390625zm2.9375 -7.3125q0 1.984375 0.765625 2.90625q0.765625 0.921875 1.890625 0.921875q1.21875 0 2.046875 -0.9375q0.828125 -0.953125 0.828125 -2.8125q0 -1.921875 -0.796875 -2.859375q-0.796875 -0.9375 -2.015625 -0.9375q-1.1875 0 -1.953125 0.921875q-0.765625 0.90625 -0.765625 2.796875zm14.488281 -2.171875l-2.984375 -0.53125q0.5 -1.8125 1.71875 -2.671875q1.234375 -0.875 3.671875 -0.875q2.203125 0 3.28125 0.53125q1.078125 0.515625 1.515625 1.328125q0.4375 0.796875 0.4375 2.9375l-0.03125 3.84375q0 1.640625 0.15625 2.421875q0.15625 0.78125 0.59375 1.671875l-3.265625 0q-0.125 -0.328125 -0.3125 -0.96875q-0.078125 -0.296875 -0.125 -0.390625q-0.84375 0.8125 -1.8125 1.234375q-0.953125 0.40625 -2.03125 0.40625q-1.921875 0 -3.03125 -1.046875q-1.109375 -1.046875 -1.109375 -2.640625q0 -1.046875 0.5 -1.875q0.5 -0.828125 1.40625 -1.265625q0.921875 -0.4375 2.625 -0.765625q2.3125 -0.4375 3.203125 -0.8125l0 -0.328125q0 -0.953125 -0.46875 -1.34375q-0.46875 -0.40625 -1.765625 -0.40625q-0.890625 0 -1.390625 0.34375q-0.484375 0.34375 -0.78125 1.203125zm4.40625 2.671875q-0.640625 0.21875 -2.015625 0.515625q-1.359375 0.28125 -1.78125 0.5625q-0.640625 0.46875 -0.640625 1.171875q0 0.6875 0.515625 1.1875q0.515625 0.5 1.3125 0.5q0.890625 0 1.6875 -0.578125q0.609375 -0.453125 0.796875 -1.09375q0.125 -0.421875 0.125 -1.609375l0 -0.65625zm5.3164062 2.4375l3.3125 -0.515625q0.203125 0.96875 0.84375 1.46875q0.65625 0.5 1.8125 0.5q1.28125 0 1.921875 -0.46875q0.4375 -0.328125 0.4375 -0.890625q0 -0.375 -0.234375 -0.609375q-0.25 -0.234375 -1.109375 -0.4375q-3.984375 -0.875 -5.046875 -1.609375q-1.484375 -1.0 -1.484375 -2.796875q0 -1.625 1.28125 -2.71875q1.28125 -1.109375 3.96875 -1.109375q2.546875 0 3.78125 0.84375q1.25 0.828125 1.71875 2.453125l-3.109375 0.578125q-0.1875 -0.734375 -0.75 -1.109375q-0.5625 -0.390625 -1.59375 -0.390625q-1.296875 0 -1.859375 0.359375q-0.375 0.265625 -0.375 0.671875q0 0.34375 0.328125 0.59375q0.453125 0.328125 3.078125 0.9375q2.625 0.59375 3.671875 1.453125q1.03125 0.875 1.03125 2.453125q0 1.703125 -1.4375 2.9375q-1.421875 1.234375 -4.21875 1.234375q-2.546875 0 -4.03125 -1.03125q-1.484375 -1.03125 -1.9375 -2.796875zm14.425781 0.25l3.296875 0l0 2.359375q0 1.4375 -0.25 2.25q-0.25 0.828125 -0.9375 1.484375q-0.671875 0.65625 -1.734375 1.03125l-0.640625 -1.359375q1.0 -0.328125 1.421875 -0.90625q0.421875 -0.5625 0.4375 -1.5625l-1.59375 0l0 -3.296875z" fill-rule="nonzero"></path><path fill="#000000" d="m148.66661 282.09167l-3.25 0.578125q-0.15625 -0.96875 -0.75 -1.453125q-0.578125 -0.5 -1.5 -0.5q-1.234375 0 -1.96875 0.859375q-0.71875 0.84375 -0.71875 2.828125q0 2.21875 0.734375 3.140625q0.75 0.90625 2.0 0.90625q0.9375 0 1.53125 -0.53125q0.609375 -0.53125 0.84375 -1.828125l3.234375 0.546875q-0.5 2.21875 -1.9375 3.359375q-1.421875 1.140625 -3.828125 1.140625q-2.71875 0 -4.34375 -1.71875q-1.625 -1.734375 -1.625 -4.78125q0 -3.078125 1.625 -4.796875q1.625 -1.71875 4.40625 -1.71875q2.28125 0 3.609375 0.984375q1.34375 0.984375 1.9375 2.984375zm2.4882812 8.765625l0 -17.1875l3.296875 0l0 17.1875l-3.296875 0zm14.871094 0l0 -1.859375q-0.6875 0.984375 -1.796875 1.5625q-1.109375 0.578125 -2.328125 0.578125q-1.265625 0 -2.265625 -0.546875q-0.984375 -0.5625 -1.4375 -1.546875q-0.4375 -1.0 -0.4375 -2.765625l0 -7.875l3.296875 0l0 5.71875q0 2.625 0.171875 3.21875q0.1875 0.59375 0.65625 0.9375q0.484375 0.34375 1.234375 0.34375q0.84375 0 1.5 -0.453125q0.671875 -0.46875 0.921875 -1.15625q0.25 -0.6875 0.25 -3.359375l0 -5.25l3.28125 0l0 12.453125l-3.046875 0zm6.3164062 0l0 -17.1875l3.296875 0l0 6.1875q1.53125 -1.734375 3.609375 -1.734375q2.28125 0 3.765625 1.65625q1.484375 1.640625 1.484375 4.71875q0 3.1875 -1.515625 4.921875q-1.515625 1.71875 -3.6875 1.71875q-1.0625 0 -2.109375 -0.53125q-1.03125 -0.53125 -1.78125 -1.578125l0 1.828125l-3.0625 0zm3.28125 -6.5q0 1.9375 0.609375 2.859375q0.84375 1.3125 2.265625 1.3125q1.09375 0 1.859375 -0.921875q0.765625 -0.9375 0.765625 -2.9375q0 -2.140625 -0.78125 -3.078125q-0.765625 -0.9375 -1.96875 -0.9375q-1.1875 0 -1.96875 0.921875q-0.78125 0.90625 -0.78125 2.78125zm10.363281 2.953125l3.3125 -0.515625q0.203125 0.96875 0.84375 1.46875q0.65625 0.5 1.8125 0.5q1.28125 0 1.921875 -0.46875q0.4375 -0.328125 0.4375 -0.890625q0 -0.375 -0.234375 -0.609375q-0.25 -0.234375 -1.109375 -0.4375q-3.984375 -0.875 -5.046875 -1.609375q-1.484375 -1.0 -1.484375 -2.796875q0 -1.625 1.28125 -2.71875q1.28125 -1.109375 3.96875 -1.109375q2.546875 0 3.78125 0.84375q1.25 0.828125 1.71875 2.453125l-3.109375 0.578125q-0.1875 -0.734375 -0.75 -1.109375q-0.5625 -0.390625 -1.59375 -0.390625q-1.296875 0 -1.859375 0.359375q-0.375 0.265625 -0.375 0.671875q0 0.34375 0.328125 0.59375q0.453125 0.328125 3.078125 0.9375q2.625 0.59375 3.671875 1.453125q1.03125 0.875 1.03125 2.453125q0 1.703125 -1.4375 2.9375q-1.421875 1.234375 -4.21875 1.234375q-2.546875 0 -4.03125 -1.03125q-1.484375 -1.03125 -1.9375 -2.796875zm19.625 -8.90625l3.5 0l2.96875 8.84375l2.90625 -8.84375l3.421875 0l-4.40625 11.984375l-0.78125 2.171875q-0.4375 1.09375 -0.828125 1.65625q-0.390625 0.578125 -0.90625 0.9375q-0.5 0.359375 -1.25 0.546875q-0.734375 0.203125 -1.671875 0.203125q-0.953125 0 -1.875 -0.1875l-0.28125 -2.578125q0.765625 0.140625 1.390625 0.140625q1.140625 0 1.6875 -0.671875q0.5625 -0.671875 0.859375 -1.71875l-4.734375 -12.484375z" fill-rule="nonzero"></path><path fill="#000000" d="m121.748634 304.31042l0 -3.046875l3.296875 0l0 3.046875l-3.296875 0zm3.296875 1.6875l0 12.0625q0 2.390625 -0.3125 3.359375q-0.3125 0.984375 -1.203125 1.53125q-0.875 0.546875 -2.25 0.546875q-0.5 0 -1.078125 -0.09375q-0.5625 -0.078125 -1.21875 -0.25l0.578125 -2.8125q0.234375 0.046875 0.453125 0.078125q0.203125 0.03125 0.375 0.03125q0.5 0 0.8125 -0.21875q0.328125 -0.21875 0.4375 -0.53125q0.109375 -0.296875 0.109375 -1.828125l0 -11.875l3.296875 0zm11.636726 12.453125l0 -1.859375q-0.6875 0.984375 -1.796875 1.5625q-1.109375 0.578125 -2.328125 0.578125q-1.265625 0 -2.265625 -0.546875q-0.984375 -0.5625 -1.4375 -1.546875q-0.4375 -1.0 -0.4375 -2.765625l0 -7.875l3.296875 0l0 5.71875q0 2.625 0.171875 3.21875q0.1875 0.59375 0.65625 0.9375q0.484375 0.34375 1.234375 0.34375q0.84375 0 1.5 -0.453125q0.671875 -0.46875 0.921875 -1.15625q0.25 -0.6875 0.25 -3.359375l0 -5.25l3.28125 0l0 12.453125l-3.046875 0zm6.1601562 0.828125l3.765625 0.453125q0.09375 0.65625 0.421875 0.90625q0.46875 0.34375 1.484375 0.34375q1.28125 0 1.9375 -0.390625q0.421875 -0.25 0.65625 -0.828125q0.140625 -0.40625 0.140625 -1.515625l0 -1.8125q-1.46875 2.015625 -3.71875 2.015625q-2.515625 0 -3.96875 -2.125q-1.15625 -1.671875 -1.15625 -4.171875q0 -3.125 1.5 -4.78125q1.515625 -1.65625 3.75 -1.65625q2.3125 0 3.8125 2.03125l0 -1.75l3.078125 0l0 11.171875q0 2.203125 -0.359375 3.296875q-0.359375 1.09375 -1.015625 1.703125q-0.65625 0.625 -1.765625 0.96875q-1.09375 0.359375 -2.765625 0.359375q-3.15625 0 -4.484375 -1.078125q-1.328125 -1.078125 -1.328125 -2.75q0 -0.15625 0.015625 -0.390625zm2.9375 -7.3125q0 1.984375 0.765625 2.90625q0.765625 0.921875 1.890625 0.921875q1.21875 0 2.046875 -0.9375q0.828125 -0.953125 0.828125 -2.8125q0 -1.921875 -0.796875 -2.859375q-0.796875 -0.9375 -2.015625 -0.9375q-1.1875 0 -1.953125 0.921875q-0.765625 0.90625 -0.765625 2.796875zm14.488281 -2.171875l-2.984375 -0.53125q0.5 -1.8125 1.71875 -2.671875q1.234375 -0.875 3.671875 -0.875q2.203125 0 3.28125 0.53125q1.078125 0.515625 1.515625 1.328125q0.4375 0.796875 0.4375 2.9375l-0.03125 3.84375q0 1.640625 0.15625 2.421875q0.15625 0.78125 0.59375 1.671875l-3.265625 0q-0.125 -0.328125 -0.3125 -0.96875q-0.078125 -0.296875 -0.125 -0.390625q-0.84375 0.8125 -1.8125 1.234375q-0.953125 0.40625 -2.03125 0.40625q-1.921875 0 -3.03125 -1.046875q-1.109375 -1.046875 -1.109375 -2.640625q0 -1.046875 0.5 -1.875q0.5 -0.828125 1.40625 -1.265625q0.921875 -0.4375 2.625 -0.765625q2.3125 -0.4375 3.203125 -0.8125l0 -0.328125q0 -0.953125 -0.46875 -1.34375q-0.46875 -0.40625 -1.765625 -0.40625q-0.890625 0 -1.390625 0.34375q-0.484375 0.34375 -0.78125 1.203125zm4.40625 2.671875q-0.640625 0.21875 -2.015625 0.515625q-1.359375 0.28125 -1.78125 0.5625q-0.640625 0.46875 -0.640625 1.171875q0 0.6875 0.515625 1.1875q0.515625 0.5 1.3125 0.5q0.890625 0 1.6875 -0.578125q0.609375 -0.453125 0.796875 -1.09375q0.125 -0.421875 0.125 -1.609375l0 -0.65625zm17.894531 5.984375l-3.0625 0l0 -1.828125q-0.765625 1.0625 -1.796875 1.59375q-1.03125 0.515625 -2.09375 0.515625q-2.140625 0 -3.671875 -1.71875q-1.53125 -1.734375 -1.53125 -4.828125q0 -3.171875 1.484375 -4.8125q1.5 -1.65625 3.765625 -1.65625q2.09375 0 3.609375 1.734375l0 -6.1875l3.296875 0l0 17.1875zm-8.796875 -6.5q0 2.0 0.5625 2.890625q0.796875 1.28125 2.21875 1.28125q1.140625 0 1.9375 -0.953125q0.796875 -0.96875 0.796875 -2.890625q0 -2.15625 -0.78125 -3.09375q-0.765625 -0.9375 -1.96875 -0.9375q-1.171875 0 -1.96875 0.9375q-0.796875 0.921875 -0.796875 2.765625zm11.285156 0.09375q0 -1.640625 0.796875 -3.171875q0.8125 -1.53125 2.296875 -2.34375q1.484375 -0.8125 3.3125 -0.8125q2.828125 0 4.625 1.84375q1.8125 1.828125 1.8125 4.625q0 2.828125 -1.828125 4.6875q-1.828125 1.859375 -4.59375 1.859375q-1.703125 0 -3.265625 -0.765625q-1.546875 -0.78125 -2.359375 -2.265625q-0.796875 -1.5 -0.796875 -3.65625zm3.375 0.1875q0 1.84375 0.875 2.828125q0.875 0.984375 2.171875 0.984375q1.28125 0 2.15625 -0.984375q0.875 -0.984375 0.875 -2.859375q0 -1.828125 -0.875 -2.8125q-0.875 -0.984375 -2.15625 -0.984375q-1.296875 0 -2.171875 0.984375q-0.875 0.984375 -0.875 2.84375zm15.191406 6.21875l-3.296875 0l0 -12.453125l3.0625 0l0 1.78125q0.78125 -1.265625 1.40625 -1.65625q0.640625 -0.40625 1.4375 -0.40625q1.125 0 2.15625 0.625l-1.015625 2.875q-0.828125 -0.546875 -1.546875 -0.546875q-0.6875 0 -1.171875 0.390625q-0.484375 0.375 -0.765625 1.375q-0.265625 1.0 -0.265625 4.171875l0 3.84375zm13.402344 -3.96875l3.28125 0.5625q-0.640625 1.796875 -2.015625 2.75q-1.359375 0.9375 -3.40625 0.9375q-3.25 0 -4.796875 -2.125q-1.234375 -1.703125 -1.234375 -4.28125q0 -3.09375 1.609375 -4.84375q1.625 -1.765625 4.09375 -1.765625q2.78125 0 4.375 1.84375q1.609375 1.828125 1.546875 5.609375l-8.25 0q0.03125 1.46875 0.796875 2.28125q0.765625 0.8125 1.890625 0.8125q0.78125 0 1.296875 -0.421875q0.53125 -0.421875 0.8125 -1.359375zm0.1875 -3.328125q-0.046875 -1.421875 -0.75 -2.15625q-0.703125 -0.75 -1.703125 -0.75q-1.078125 0 -1.78125 0.78125q-0.703125 0.78125 -0.6875 2.125l4.921875 0zm4.7851562 3.75l3.3125 -0.515625q0.203125 0.96875 0.84375 1.46875q0.65625 0.5 1.8125 0.5q1.28125 0 1.921875 -0.46875q0.4375 -0.328125 0.4375 -0.890625q0 -0.375 -0.234375 -0.609375q-0.25 -0.234375 -1.109375 -0.4375q-3.984375 -0.875 -5.046875 -1.609375q-1.484375 -1.0 -1.484375 -2.796875q0 -1.625 1.28125 -2.71875q1.28125 -1.109375 3.96875 -1.109375q2.546875 0 3.78125 0.84375q1.25 0.828125 1.71875 2.453125l-3.109375 0.578125q-0.1875 -0.734375 -0.75 -1.109375q-0.5625 -0.390625 -1.59375 -0.390625q-1.296875 0 -1.859375 0.359375q-0.375 0.265625 -0.375 0.671875q0 0.34375 0.328125 0.59375q0.453125 0.328125 3.078125 0.9375q2.625 0.59375 3.671875 1.453125q1.03125 0.875 1.03125 2.453125q0 1.703125 -1.4375 2.9375q-1.421875 1.234375 -4.21875 1.234375q-2.546875 0 -4.03125 -1.03125q-1.484375 -1.03125 -1.9375 -2.796875z" fill-rule="nonzero"></path></g></svg>

