<?xml version="1.0" standalone="yes"?>

<svg version="1.1" viewBox="0.0 0.0 392.0 351.0" fill="none" stroke="none" stroke-linecap="square" stroke-miterlimit="10" xmlns="http://www.w3.org/2000/svg" xmlns:xlink="http://www.w3.org/1999/xlink"><clipPath id="p.0"><path d="m0 0l392.0 0l0 351.0l-392.0 0l0 -351.0z" clip-rule="nonzero"></path></clipPath><g clip-path="url(#p.0)"><path fill="#000000" fill-opacity="0.0" d="m0 0l392.95538 0l0 351.48294l-392.95538 0z" fill-rule="nonzero"></path><path fill="#d9ead3" d="m15.774242 323.71524l176.54393 -305.7335l176.54391 305.7335z" fill-rule="nonzero"></path><path stroke="#000000" stroke-width="2.0" stroke-linejoin="round" stroke-linecap="butt" d="m15.774242 323.71524l176.54393 -305.7335l176.54391 305.7335z" fill-rule="nonzero"></path><path fill="#000000" fill-opacity="0.0" d="m122.8352 276.12067l138.96597 0l0 45.504303l-138.96597 0z" fill-rule="nonzero"></path><path fill="#000000" d="m142.68536 289.62283l3.46875 0l0 9.3125q0 2.21875 0.140625 2.875q0.21875 1.046875 1.046875 1.6875q0.84375 0.640625 2.296875 0.640625q1.484375 0 2.234375 -0.59375q0.75 -0.609375 0.890625 -1.484375q0.15625 -0.890625 0.15625 -2.921875l0 -9.515625l3.46875 0l0 9.03125q0 3.09375 -0.28125 4.375q-0.28125 1.265625 -1.046875 2.15625q-0.75 0.875 -2.015625 1.40625q-1.265625 0.515625 -3.296875 0.515625q-2.46875 0 -3.734375 -0.5625q-1.265625 -0.578125 -2.015625 -1.484375q-0.734375 -0.90625 -0.96875 -1.90625q-0.34375 -1.484375 -0.34375 -4.359375l0 -9.171875zm16.175781 13.640625l3.3125 -0.515625q0.203125 0.96875 0.84375 1.46875q0.65625 0.5 1.8125 0.5q1.28125 0 1.921875 -0.46875q0.4375 -0.328125 0.4375 -0.890625q0 -0.375 -0.234375 -0.609375q-0.25 -0.234375 -1.109375 -0.4375q-3.984375 -0.875 -5.046875 -1.609375q-1.484375 -1.0 -1.484375 -2.796875q0 -1.625 1.28125 -2.71875q1.28125 -1.109375 3.96875 -1.109375q2.546875 0 3.78125 0.84375q1.25 0.828125 1.71875 2.453125l-3.109375 0.578125q-0.1875 -0.734375 -0.75 -1.109375q-0.5625 -0.390625 -1.59375 -0.390625q-1.296875 0 -1.859375 0.359375q-0.375 0.265625 -0.375 0.671875q0 0.34375 0.328125 0.59375q0.453125 0.328125 3.078125 0.9375q2.625 0.59375 3.671875 1.453125q1.03125 0.875 1.03125 2.453125q0 1.703125 -1.4375 2.9375q-1.421875 1.234375 -4.21875 1.234375q-2.546875 0 -4.03125 -1.03125q-1.484375 -1.03125 -1.9375 -2.796875zm22.707031 3.546875l0 -1.859375q-0.6875 0.984375 -1.796875 1.5625q-1.109375 0.578125 -2.328125 0.578125q-1.265625 0 -2.265625 -0.546875q-0.984375 -0.5625 -1.4375 -1.546875q-0.4375 -1.0 -0.4375 -2.765625l0 -7.875l3.296875 0l0 5.71875q0 2.625 0.171875 3.21875q0.1875 0.59375 0.65625 0.9375q0.484375 0.34375 1.234375 0.34375q0.84375 0 1.5 -0.453125q0.671875 -0.46875 0.921875 -1.15625q0.25 -0.6875 0.25 -3.359375l0 -5.25l3.28125 0l0 12.453125l-3.046875 0zm8.9257965 -8.65625l-2.984375 -0.53125q0.5 -1.8125 1.71875 -2.671875q1.234375 -0.875 3.671875 -0.875q2.203125 0 3.28125 0.53125q1.078125 0.515625 1.515625 1.328125q0.4375 0.796875 0.4375 2.9375l-0.03125 3.84375q0 1.640625 0.15625 2.421875q0.15625 0.78125 0.59375 1.671875l-3.265625 0q-0.125 -0.328125 -0.3125 -0.96875q-0.078125 -0.296875 -0.125 -0.390625q-0.84375 0.8125 -1.8125 1.234375q-0.953125 0.40625 -2.03125 0.40625q-1.921875 0 -3.03125 -1.046875q-1.109375 -1.046875 -1.109375 -2.640625q0 -1.046875 0.5 -1.875q0.5 -0.828125 1.40625 -1.265625q0.921875 -0.4375 2.625 -0.765625q2.3125 -0.4375 3.203125 -0.8125l0 -0.328125q0 -0.953125 -0.46875 -1.34375q-0.46875 -0.40625 -1.765625 -0.40625q-0.890625 0 -1.390625 0.34375q-0.484375 0.34375 -0.78125 1.203125zm4.40625 2.671875q-0.640625 0.21875 -2.015625 0.515625q-1.359375 0.28125 -1.78125 0.5625q-0.640625 0.46875 -0.640625 1.171875q0 0.6875 0.515625 1.1875q0.515625 0.5 1.3125 0.5q0.890625 0 1.6875 -0.578125q0.609375 -0.453125 0.796875 -1.09375q0.125 -0.421875 0.125 -1.609375l0 -0.65625zm9.628906 5.984375l-3.296875 0l0 -12.453125l3.0625 0l0 1.78125q0.78125 -1.265625 1.40625 -1.65625q0.640625 -0.40625 1.4375 -0.40625q1.125 0 2.15625 0.625l-1.015625 2.875q-0.828125 -0.546875 -1.546875 -0.546875q-0.6875 0 -1.171875 0.390625q-0.484375 0.375 -0.765625 1.375q-0.265625 1.0 -0.265625 4.171875l0 3.84375zm6.1835938 -14.140625l0 -3.046875l3.296875 0l0 3.046875l-3.296875 0zm0 14.140625l0 -12.453125l3.296875 0l0 12.453125l-3.296875 0zm5.9179688 -6.40625q0 -1.640625 0.796875 -3.171875q0.8125 -1.53125 2.296875 -2.34375q1.484375 -0.8125 3.3125 -0.8125q2.828125 0 4.625 1.84375q1.8125 1.828125 1.8125 4.625q0 2.828125 -1.828125 4.6875q-1.828125 1.859375 -4.59375 1.859375q-1.703125 0 -3.265625 -0.765625q-1.546875 -0.78125 -2.359375 -2.265625q-0.796875 -1.5 -0.796875 -3.65625zm3.375 0.1875q0 1.84375 0.875 2.828125q0.875 0.984375 2.171875 0.984375q1.28125 0 2.15625 -0.984375q0.875 -0.984375 0.875 -2.859375q0 -1.828125 -0.875 -2.8125q-0.875 -0.984375 -2.15625 -0.984375q-1.296875 0 -2.171875 0.984375q-0.875 0.984375 -0.875 2.84375zm10.878906 2.671875l3.3125 -0.515625q0.203125 0.96875 0.84375 1.46875q0.65625 0.5 1.8125 0.5q1.28125 0 1.921875 -0.46875q0.4375 -0.328125 0.4375 -0.890625q0 -0.375 -0.234375 -0.609375q-0.25 -0.234375 -1.109375 -0.4375q-3.984375 -0.875 -5.046875 -1.609375q-1.484375 -1.0 -1.484375 -2.796875q0 -1.625 1.28125 -2.71875q1.28125 -1.109375 3.96875 -1.109375q2.546875 0 3.78125 0.84375q1.25 0.828125 1.71875 2.453125l-3.109375 0.578125q-0.1875 -0.734375 -0.75 -1.109375q-0.5625 -0.390625 -1.59375 -0.390625q-1.296875 0 -1.859375 0.359375q-0.375 0.265625 -0.375 0.671875q0 0.34375 0.328125 0.59375q0.453125 0.328125 3.078125 0.9375q2.625 0.59375 3.671875 1.453125q1.03125 0.875 1.03125 2.453125q0 1.703125 -1.4375 2.9375q-1.421875 1.234375 -4.21875 1.234375q-2.546875 0 -4.03125 -1.03125q-1.484375 -1.03125 -1.9375 -2.796875z" fill-rule="nonzero"></path><path fill="#fff2cc" d="m43.02752 276.12067l149.29065 -258.13892l149.29068 258.13892z" fill-rule="nonzero"></path><path stroke="#000000" stroke-width="2.0" stroke-linejoin="round" stroke-linecap="butt" d="m43.02752 276.12067l149.29065 -258.13892l149.29068 258.13892z" fill-rule="nonzero"></path><path fill="#000000" fill-opacity="0.0" d="m216.63399 83.78208l77.6693 131.65353l-32.629944 19.244095l-77.66928 -131.65353z" fill-rule="nonzero"></path><path fill="#000000" d="m208.81023 123.418526l14.804565 -8.731262l2.8264008 4.790909q1.6116943 2.7318954 1.8672028 3.6877518q0.4177704 1.4769135 -0.1991272 2.983551q-0.5954895 1.5121689 -2.3720398 2.5599213q-1.3593292 0.8016815 -2.5817413 0.8514404q-1.2144623 0.06321716 -2.2053528 -0.3863678q-0.97743225 -0.45751953 -1.5994263 -1.142807q-0.8504791 -0.9496155 -2.0413818 -2.968254l-1.1511993 -1.951355l-5.585373 3.2940674l-1.7625275 -2.9875946zm14.063782 -4.267296l-4.199112 2.476509l0.96066284 1.6283646q1.0479889 1.7764053 1.6261139 2.2336044q0.57814026 0.4571991 1.2745972 0.49995422q0.6964569 0.042747498 1.3424683 -0.3382492q0.80752563 -0.4762497 1.0545349 -1.2568359q0.24700928 -0.7805786 -0.0471344 -1.5866623q-0.2098999 -0.60180664 -1.1626129 -2.2167206l-0.8495178 -1.4399643zm2.76474 15.756622l-1.0588226 -2.840271q1.8152618 -0.4901123 3.174759 0.12301636q1.3809052 0.61865234 2.6194458 2.718048q1.1194458 1.897522 1.2096558 3.0959625q0.10368347 1.1905212 -0.37387085 1.9800873q-0.46409607 0.7816162 -2.3079376 1.8690643l-3.326706 1.925705q-1.4131622 0.8334503 -2.0067139 1.3648987q-0.5935364 0.53144836 -1.138382 1.3607025l-1.659317 -2.8126373q0.21911621 -0.27435303 0.6756439 -0.76127625q0.21601868 -0.21810913 0.27294922 -0.30610657q-1.1285706 -0.31396484 -1.9841919 -0.934021q-0.8342285 -0.6145325 -1.3820496 -1.5431061q-0.976532 -1.6552887 -0.63848877 -3.1425934q0.33802795 -1.4873047 1.7108154 -2.296936q0.9017334 -0.5318146 1.8691101 -0.5218506q0.96736145 0.0099487305 1.8046875 0.5682373q0.8452759 0.5717468 1.9932861 1.8719482q1.5518646 1.7694702 2.327423 2.346054l0.28263855 -0.16668701q0.8209686 -0.4841919 0.91926575 -1.0863495q0.11174011 -0.6101074 -0.54722595 -1.7270813q-0.45254517 -0.76708984 -1.0026855 -1.0231018q-0.54222107 -0.24256897 -1.4332886 -0.061706543zm-0.06254578 5.1523743q-0.5139313 -0.4406433 -1.4683075 -1.4741058q-0.9329834 -1.0279236 -1.3896027 -1.2484131q-0.72927856 -0.31362915 -1.3349152 0.043548584q-0.59217834 0.34925842 -0.76086426 1.0473633q-0.16868591 0.6980896 0.23622131 1.3844299q0.45254517 0.76708984 1.355423 1.1597443q0.6999359 0.29464722 1.3470154 0.13070679q0.4269104 -0.106658936 1.4497681 -0.7098999l0.56526184 -0.33337402zm-0.26205444 11.333313l-1.6752014 -2.8395538l10.726578 -6.3262024l1.5561066 2.6376953l-1.5342865 0.9048767q1.4871216 0.029937744 2.141159 0.369812q0.67544556 0.3453827 1.0803528 1.031723q0.57162476 0.96894836 0.5572815 2.174652l-2.9924622 0.5857544q0.05027771 -0.99105835 -0.3149414 -1.6101074q-0.34933472 -0.5921478 -0.9319153 -0.81088257q-0.5691223 -0.22668457 -1.5733948 0.03907776q-0.99632263 0.27922058 -3.7284393 1.8905334l-3.3108368 1.9526215zm16.774384 3.9251404l-2.2610626 1.3335114l-1.1432648 -1.9378967l-4.3202515 2.547943q-1.3189545 0.77786255 -1.502533 0.95869446q-0.18357849 0.18083191 -0.22047424 0.45655823q-0.01550293 0.28123474 0.15122986 0.5638428q0.23023987 0.39027405 0.9440155 0.9851532l-2.0508575 1.5360565q-1.0181885 -0.74186707 -1.756546 -1.9934235q-0.45254517 -0.76708984 -0.56204224 -1.5369568q-0.10154724 -0.75639343 0.12754822 -1.2905884q0.25048828 -0.52867126 0.88682556 -1.0490875q0.44239807 -0.38789368 1.9363098 -1.2689514l4.6836243 -2.7622528l-0.7701111 -1.3053894l2.2610626 -1.3335114l0.7701111 1.3053894l2.12648 -1.2541199l3.338562 1.8766937l-3.7819061 2.2304382l1.14328 1.9378967zm2.6087036 1.1008301l2.6244507 -1.5478058l1.6752014 2.8395538l-2.6244507 1.5478058l-1.6752014 -2.8395538zm-12.180115 7.1834564l10.726578 -6.3262024l1.6752014 2.8395538l-10.726578 6.3262024l-1.6752014 -2.8395538zm9.191772 15.580551l-1.5561066 -2.6376953l1.5746613 -0.9286804q-1.3042145 -0.11967468 -2.2858124 -0.7380066q-0.9681244 -0.6262665 -1.5079956 -1.5413818q-1.0876923 -1.843689 -0.38529968 -4.03566q0.7158661 -2.1999207 3.3806915 -3.7715454q2.7321014 -1.6113129 4.8995056 -1.166275q2.188797 0.45054626 3.3400116 2.4019012q1.0638733 1.8033295 0.34007263 3.9897766l5.3296356 -3.1432495l1.6752014 2.8395538l-14.804565 8.731262zm1.1289673 -10.878647q-1.722702 1.0160065 -2.2040405 1.9529114q-0.69869995 1.3372192 0.023773193 2.5618591q0.5795746 0.9824066 1.8054657 1.184555q1.2393494 0.19421387 2.8947601 -0.78208923q1.8572998 -1.0953827 2.2678528 -2.244522q0.4185028 -1.1356659 -0.19282532 -2.1719055q-0.595459 -1.0093231 -1.8078918 -1.2194061q-1.1989594 -0.21803284 -2.787094 0.7185974zm5.6534424 9.767395q1.4131622 -0.8334503 3.137024 -0.9249878q1.7317963 -0.07807922 3.1858978 0.78764343q1.4540863 0.86572266 2.3829803 2.4402618q1.4370422 2.4358368 0.7619324 4.9200897q-0.65371704 2.4897766 -3.0628204 3.9105835q-2.43602 1.4366913 -4.966507 0.8067169q-2.530487 -0.62997437 -3.9357605 -3.0119781q-0.86538696 -1.4668732 -0.9998474 -3.2015839q-0.11305237 -1.7291718 0.7526703 -3.1830292q0.88713074 -1.448349 2.7444305 -2.5437164zm1.5534058 3.0020905q-1.5881348 0.93663025 -1.9914246 2.1903229q-0.40330505 1.2536774 0.255661 2.3706665q0.6510315 1.1035156 1.9435425 1.3570862q1.2924957 0.2535553 2.9075317 -0.6989441q1.5746765 -0.9286804 1.9779663 -2.182373q0.4032898 -1.2536926 -0.24772644 -2.3572083q-0.65896606 -1.1169891 -1.951477 -1.3705444q-1.2924957 -0.25357056 -2.8940735 0.69099426zm3.2263336 10.727173l2.1272736 2.5910797q-0.7312317 0.66708374 -0.83639526 1.4728394q-0.097229004 0.81921387 0.49028015 1.8150787q0.6510315 1.1035309 1.3802948 1.41716q0.50494385 0.21012878 0.98947144 -0.07562256q0.32299805 -0.19049072 0.40579224 -0.51142883q0.07485962 -0.3343811 -0.18685913 -1.1777344q-1.2708435 -3.8761902 -1.1781616 -5.1643677q0.1071167 -1.7864838 1.6548767 -2.699295q1.3996887 -0.8255005 2.9928284 -0.27760315q1.6065979 0.53996277 2.972168 2.8546753q1.2941284 2.1935883 1.1945496 3.6853638q-0.07815552 1.4972992 -1.239685 2.726532l-2.0779114 -2.3843842q0.5372925 -0.5345459 0.5744934 -1.2095337q0.05065918 -0.6829071 -0.47335815 -1.571106q-0.65896606 -1.1169891 -1.2543335 -1.4188995q-0.41934204 -0.18803406 -0.7692566 0.018341064q-0.29608154 0.17462158 -0.34469604 0.5842285q-0.05239868 0.55696106 0.75653076 3.1273956q0.8223572 2.5625153 0.6140747 3.9007416q-0.2296753 1.3327026 -1.5890198 2.1343842q-1.4670105 0.8651886 -3.2606506 0.2541504q-1.7857208 -0.59757996 -3.2068634 -3.006485q-1.2941132 -2.1936035 -1.16008 -3.9959412q0.1340332 -1.8023529 1.4246368 -3.089569z" fill-rule="nonzero"></path><path fill="#f4cccc" d="m43.027534 276.12067l111.19575 -192.33858l111.195724 192.33858z" fill-rule="nonzero"></path><path stroke="#000000" stroke-width="2.0" stroke-linejoin="round" stroke-linecap="butt" d="m43.027534 276.12067l111.19575 -192.33858l111.195724 192.33858z" fill-rule="nonzero"></path><path fill="#000000" fill-opacity="0.0" d="m89.8217 182.03267l138.92914 0l0 66.99213l-138.92914 0z" fill-rule="nonzero"></path><path fill="#000000" d="m126.45424 195.87248l0 -17.046875l3.46875 0l0 14.15625l8.625 0l0 2.890625l-12.09375 0zm14.535156 -14.140625l0 -3.046875l3.296875 0l0 3.046875l-3.296875 0zm0 14.140625l0 -12.453125l3.296875 0l0 12.453125l-3.296875 0zm6.3710938 0.828125l3.765625 0.453125q0.09375 0.65625 0.421875 0.90625q0.46875 0.34375 1.484375 0.34375q1.28125 0 1.9375 -0.390625q0.421875 -0.25 0.65625 -0.828125q0.140625 -0.40625 0.140625 -1.515625l0 -1.8125q-1.46875 2.015625 -3.71875 2.015625q-2.515625 0 -3.96875 -2.125q-1.15625 -1.671875 -1.15625 -4.171875q0 -3.125 1.5 -4.78125q1.515625 -1.65625 3.75 -1.65625q2.3125 0 3.8125 2.03125l0 -1.75l3.078125 0l0 11.171875q0 2.203125 -0.359375 3.296875q-0.359375 1.09375 -1.015625 1.703125q-0.65625 0.625 -1.765625 0.96875q-1.09375 0.359375 -2.765625 0.359375q-3.15625 0 -4.484375 -1.078125q-1.328125 -1.078125 -1.328125 -2.75q0 -0.15625 0.015625 -0.390625zm2.9375 -7.3125q0 1.984375 0.765625 2.90625q0.765625 0.921875 1.890625 0.921875q1.21875 0 2.046875 -0.9375q0.828125 -0.953125 0.828125 -2.8125q0 -1.921875 -0.796875 -2.859375q-0.796875 -0.9375 -2.015625 -0.9375q-1.1875 0 -1.953125 0.921875q-0.765625 0.90625 -0.765625 2.796875zm14.488281 -2.171875l-2.984375 -0.53125q0.5 -1.8125 1.71875 -2.671875q1.234375 -0.875 3.671875 -0.875q2.203125 0 3.28125 0.53125q1.078125 0.515625 1.515625 1.328125q0.4375 0.796875 0.4375 2.9375l-0.03125 3.84375q0 1.640625 0.15625 2.421875q0.15625 0.78125 0.59375 1.671875l-3.265625 0q-0.125 -0.328125 -0.3125 -0.96875q-0.078125 -0.296875 -0.125 -0.390625q-0.84375 0.8125 -1.8125 1.234375q-0.953125 0.40625 -2.03125 0.40625q-1.921875 0 -3.03125 -1.046875q-1.109375 -1.046875 -1.109375 -2.640625q0 -1.046875 0.5 -1.875q0.5 -0.828125 1.40625 -1.265625q0.921875 -0.4375 2.625 -0.765625q2.3125 -0.4375 3.203125 -0.8125l0 -0.328125q0 -0.953125 -0.46875 -1.34375q-0.46875 -0.40625 -1.765625 -0.40625q-0.890625 0 -1.390625 0.34375q-0.484375 0.34375 -0.78125 1.203125zm4.40625 2.671875q-0.640625 0.21875 -2.015625 0.515625q-1.359375 0.28125 -1.78125 0.5625q-0.640625 0.46875 -0.640625 1.171875q0 0.6875 0.515625 1.1875q0.515625 0.5 1.3125 0.5q0.890625 0 1.6875 -0.578125q0.609375 -0.453125 0.796875 -1.09375q0.125 -0.421875 0.125 -1.609375l0 -0.65625zm5.3164062 2.4375l3.3125 -0.515625q0.203125 0.96875 0.84375 1.46875q0.65625 0.5 1.8125 0.5q1.28125 0 1.921875 -0.46875q0.4375 -0.328125 0.4375 -0.890625q0 -0.375 -0.234375 -0.609375q-0.25 -0.234375 -1.109375 -0.4375q-3.984375 -0.875 -5.046875 -1.609375q-1.484375 -1.0 -1.484375 -2.796875q0 -1.625 1.28125 -2.71875q1.28125 -1.109375 3.96875 -1.109375q2.546875 0 3.78125 0.84375q1.25 0.828125 1.71875 2.453125l-3.109375 0.578125q-0.1875 -0.734375 -0.75 -1.109375q-0.5625 -0.390625 -1.59375 -0.390625q-1.296875 0 -1.859375 0.359375q-0.375 0.265625 -0.375 0.671875q0 0.34375 0.328125 0.59375q0.453125 0.328125 3.078125 0.9375q2.625 0.59375 3.671875 1.453125q1.03125 0.875 1.03125 2.453125q0 1.703125 -1.4375 2.9375q-1.421875 1.234375 -4.21875 1.234375q-2.546875 0 -4.03125 -1.03125q-1.484375 -1.03125 -1.9375 -2.796875zm14.425781 0.25l3.296875 0l0 2.359375q0 1.4375 -0.25 2.25q-0.25 0.828125 -0.9375 1.484375q-0.671875 0.65625 -1.734375 1.03125l-0.640625 -1.359375q1.0 -0.328125 1.421875 -0.90625q0.421875 -0.5625 0.4375 -1.5625l-1.59375 0l0 -3.296875z" fill-rule="nonzero"></path><path fill="#000000" d="m130.51479 214.7006l-3.25 0.578125q-0.15625 -0.96875 -0.75 -1.453125q-0.578125 -0.5 -1.5 -0.5q-1.234375 0 -1.96875 0.859375q-0.71875 0.84375 -0.71875 2.828125q0 2.21875 0.734375 3.140625q0.75 0.90625 2.0 0.90625q0.9375 0 1.53125 -0.53125q0.609375 -0.53125 0.84375 -1.828125l3.234375 0.546875q-0.5 2.21875 -1.9375 3.359375q-1.421875 1.140625 -3.828125 1.140625q-2.71875 0 -4.34375 -1.71875q-1.625 -1.734375 -1.625 -4.78125q0 -3.078125 1.625 -4.796875q1.625 -1.71875 4.40625 -1.71875q2.28125 0 3.609375 0.984375q1.34375 0.984375 1.9375 2.984375zm2.4882812 8.765625l0 -17.1875l3.296875 0l0 17.1875l-3.296875 0zm14.871094 0l0 -1.859375q-0.6875 0.984375 -1.796875 1.5625q-1.109375 0.578125 -2.328125 0.578125q-1.265625 0 -2.265625 -0.546875q-0.984375 -0.5625 -1.4375 -1.546875q-0.4375 -1.0 -0.4375 -2.765625l0 -7.875l3.296875 0l0 5.71875q0 2.625 0.171875 3.21875q0.1875 0.59375 0.65625 0.9375q0.484375 0.34375 1.234375 0.34375q0.84375 0 1.5 -0.453125q0.671875 -0.46875 0.921875 -1.15625q0.25 -0.6875 0.25 -3.359375l0 -5.25l3.28125 0l0 12.453125l-3.046875 0zm6.3164062 0l0 -17.1875l3.296875 0l0 6.1875q1.53125 -1.734375 3.609375 -1.734375q2.28125 0 3.765625 1.65625q1.484375 1.640625 1.484375 4.71875q0 3.1875 -1.515625 4.921875q-1.515625 1.71875 -3.6875 1.71875q-1.0625 0 -2.109375 -0.53125q-1.03125 -0.53125 -1.78125 -1.578125l0 1.828125l-3.0625 0zm3.28125 -6.5q0 1.9375 0.609375 2.859375q0.84375 1.3125 2.265625 1.3125q1.09375 0 1.859375 -0.921875q0.765625 -0.9375 0.765625 -2.9375q0 -2.140625 -0.78125 -3.078125q-0.765625 -0.9375 -1.96875 -0.9375q-1.1875 0 -1.96875 0.921875q-0.78125 0.90625 -0.78125 2.78125zm10.363281 2.953125l3.3125 -0.515625q0.203125 0.96875 0.84375 1.46875q0.65625 0.5 1.8125 0.5q1.28125 0 1.921875 -0.46875q0.4375 -0.328125 0.4375 -0.890625q0 -0.375 -0.234375 -0.609375q-0.25 -0.234375 -1.109375 -0.4375q-3.984375 -0.875 -5.046875 -1.609375q-1.484375 -1.0 -1.484375 -2.796875q0 -1.625 1.28125 -2.71875q1.28125 -1.109375 3.96875 -1.109375q2.546875 0 3.78125 0.84375q1.25 0.828125 1.71875 2.453125l-3.109375 0.578125q-0.1875 -0.734375 -0.75 -1.109375q-0.5625 -0.390625 -1.59375 -0.390625q-1.296875 0 -1.859375 0.359375q-0.375 0.265625 -0.375 0.671875q0 0.34375 0.328125 0.59375q0.453125 0.328125 3.078125 0.9375q2.625 0.59375 3.671875 1.453125q1.03125 0.875 1.03125 2.453125q0 1.703125 -1.4375 2.9375q-1.421875 1.234375 -4.21875 1.234375q-2.546875 0 -4.03125 -1.03125q-1.484375 -1.03125 -1.9375 -2.796875zm19.625 -8.90625l3.5 0l2.96875 8.84375l2.90625 -8.84375l3.421875 0l-4.40625 11.984375l-0.78125 2.171875q-0.4375 1.09375 -0.828125 1.65625q-0.390625 0.578125 -0.90625 0.9375q-0.5 0.359375 -1.25 0.546875q-0.734375 0.203125 -1.671875 0.203125q-0.953125 0 -1.875 -0.1875l-0.28125 -2.578125q0.765625 0.140625 1.390625 0.140625q1.140625 0 1.6875 -0.671875q0.5625 -0.671875 0.859375 -1.71875l-4.734375 -12.484375z" fill-rule="nonzero"></path><path fill="#000000" d="m103.59682 236.91936l0 -3.046875l3.296875 0l0 3.046875l-3.296875 0zm3.296875 1.6875l0 12.0625q0 2.390625 -0.3125 3.359375q-0.3125 0.984375 -1.203125 1.53125q-0.875 0.54685974 -2.25 0.54685974q-0.5 0 -1.078125 -0.09375q-0.5625 -0.07810974 -1.21875 -0.24998474l0.578125 -2.8125q0.234375 0.046875 0.453125 0.078125q0.203125 0.03125 0.375 0.03125q0.5 0 0.8125 -0.21875q0.328125 -0.21875 0.4375 -0.53125q0.109375 -0.296875 0.109375 -1.828125l0 -11.875l3.296875 0zm11.636719 12.453125l0 -1.859375q-0.6875 0.984375 -1.796875 1.5625q-1.109375 0.578125 -2.328125 0.578125q-1.265625 0 -2.265625 -0.546875q-0.984375 -0.5625 -1.4375 -1.546875q-0.4375 -1.0 -0.4375 -2.765625l0 -7.875l3.296875 0l0 5.71875q0 2.625 0.171875 3.21875q0.1875 0.59375 0.65625 0.9375q0.484375 0.34375 1.234375 0.34375q0.84375 0 1.5 -0.453125q0.671875 -0.46875 0.921875 -1.15625q0.25 -0.6875 0.25 -3.359375l0 -5.25l3.28125 0l0 12.453125l-3.046875 0zm6.1601562 0.828125l3.765625 0.453125q0.09375 0.65625 0.421875 0.90625q0.46875 0.34375 1.484375 0.34375q1.28125 0 1.9375 -0.390625q0.421875 -0.25 0.65625 -0.828125q0.140625 -0.40625 0.140625 -1.515625l0 -1.8125q-1.46875 2.015625 -3.71875 2.015625q-2.515625 0 -3.96875 -2.125q-1.15625 -1.671875 -1.15625 -4.171875q0 -3.125 1.5 -4.78125q1.515625 -1.65625 3.75 -1.65625q2.3125 0 3.8125 2.03125l0 -1.75l3.078125 0l0 11.171875q0 2.203125 -0.359375 3.296875q-0.359375 1.09375 -1.015625 1.703125q-0.65625 0.625 -1.765625 0.96875q-1.09375 0.35935974 -2.765625 0.35935974q-3.15625 0 -4.484375 -1.0781097q-1.328125 -1.078125 -1.328125 -2.75q0 -0.15625 0.015625 -0.390625zm2.9375 -7.3125q0 1.984375 0.765625 2.90625q0.765625 0.921875 1.890625 0.921875q1.21875 0 2.046875 -0.9375q0.828125 -0.953125 0.828125 -2.8125q0 -1.921875 -0.796875 -2.859375q-0.796875 -0.9375 -2.015625 -0.9375q-1.1875 0 -1.953125 0.921875q-0.765625 0.90625 -0.765625 2.796875zm14.488281 -2.171875l-2.984375 -0.53125q0.5 -1.8125 1.71875 -2.671875q1.234375 -0.875 3.671875 -0.875q2.203125 0 3.28125 0.53125q1.078125 0.515625 1.515625 1.328125q0.4375 0.796875 0.4375 2.9375l-0.03125 3.84375q0 1.640625 0.15625 2.421875q0.15625 0.78125 0.59375 1.671875l-3.265625 0q-0.125 -0.328125 -0.3125 -0.96875q-0.078125 -0.296875 -0.125 -0.390625q-0.84375 0.8125 -1.8125 1.234375q-0.953125 0.40625 -2.03125 0.40625q-1.921875 0 -3.03125 -1.046875q-1.109375 -1.046875 -1.109375 -2.640625q0 -1.046875 0.5 -1.875q0.5 -0.828125 1.40625 -1.265625q0.921875 -0.4375 2.625 -0.765625q2.3125 -0.4375 3.203125 -0.8125l0 -0.328125q0 -0.953125 -0.46875 -1.34375q-0.46875 -0.40625 -1.765625 -0.40625q-0.890625 0 -1.390625 0.34375q-0.484375 0.34375 -0.78125 1.203125zm4.40625 2.671875q-0.640625 0.21875 -2.015625 0.515625q-1.359375 0.28125 -1.78125 0.5625q-0.640625 0.46875 -0.640625 1.171875q0 0.6875 0.515625 1.1875q0.515625 0.5 1.3125 0.5q0.890625 0 1.6875 -0.578125q0.609375 -0.453125 0.796875 -1.09375q0.125 -0.421875 0.125 -1.609375l0 -0.65625zm17.894531 5.984375l-3.0625 0l0 -1.828125q-0.765625 1.0625 -1.796875 1.59375q-1.03125 0.515625 -2.09375 0.515625q-2.140625 0 -3.671875 -1.71875q-1.53125 -1.734375 -1.53125 -4.828125q0 -3.171875 1.484375 -4.8125q1.5 -1.65625 3.765625 -1.65625q2.09375 0 3.609375 1.734375l0 -6.1875l3.296875 0l0 17.1875zm-8.796875 -6.5q0 2.0 0.5625 2.890625q0.796875 1.28125 2.21875 1.28125q1.140625 0 1.9375 -0.953125q0.796875 -0.96875 0.796875 -2.890625q0 -2.15625 -0.78125 -3.09375q-0.765625 -0.9375 -1.96875 -0.9375q-1.171875 0 -1.96875 0.9375q-0.796875 0.921875 -0.796875 2.765625zm11.285156 0.09375q0 -1.640625 0.796875 -3.171875q0.8125 -1.53125 2.296875 -2.34375q1.484375 -0.8125 3.3125 -0.8125q2.828125 0 4.625 1.84375q1.8125 1.828125 1.8125 4.625q0 2.828125 -1.828125 4.6875q-1.828125 1.859375 -4.59375 1.859375q-1.703125 0 -3.265625 -0.765625q-1.546875 -0.78125 -2.359375 -2.265625q-0.796875 -1.5 -0.796875 -3.65625zm3.375 0.1875q0 1.84375 0.875 2.828125q0.875 0.984375 2.171875 0.984375q1.28125 0 2.15625 -0.984375q0.875 -0.984375 0.875 -2.859375q0 -1.828125 -0.875 -2.8125q-0.875 -0.984375 -2.15625 -0.984375q-1.296875 0 -2.171875 0.984375q-0.875 0.984375 -0.875 2.84375zm15.191406 6.21875l-3.296875 0l0 -12.453125l3.0625 0l0 1.78125q0.78125 -1.265625 1.40625 -1.65625q0.640625 -0.40625 1.4375 -0.40625q1.125 0 2.15625 0.625l-1.015625 2.875q-0.828125 -0.546875 -1.546875 -0.546875q-0.6875 0 -1.171875 0.390625q-0.484375 0.375 -0.765625 1.375q-0.265625 1.0 -0.265625 4.171875l0 3.84375zm13.402344 -3.96875l3.28125 0.5625q-0.640625 1.796875 -2.015625 2.75q-1.359375 0.9375 -3.40625 0.9375q-3.25 0 -4.796875 -2.125q-1.234375 -1.703125 -1.234375 -4.28125q0 -3.09375 1.609375 -4.84375q1.625 -1.765625 4.09375 -1.765625q2.78125 0 4.375 1.84375q1.609375 1.828125 1.546875 5.609375l-8.25 0q0.03125 1.46875 0.796875 2.28125q0.765625 0.8125 1.890625 0.8125q0.78125 0 1.296875 -0.421875q0.53125 -0.421875 0.8125 -1.359375zm0.1875 -3.328125q-0.046875 -1.421875 -0.75 -2.15625q-0.703125 -0.75 -1.703125 -0.75q-1.078125 0 -1.78125 0.78125q-0.703125 0.78125 -0.6875 2.125l4.921875 0zm4.7851562 3.75l3.3125 -0.515625q0.203125 0.96875 0.84375 1.46875q0.65625 0.5 1.8125 0.5q1.28125 0 1.921875 -0.46875q0.4375 -0.328125 0.4375 -0.890625q0 -0.375 -0.234375 -0.609375q-0.25 -0.234375 -1.109375 -0.4375q-3.984375 -0.875 -5.046875 -1.609375q-1.484375 -1.0 -1.484375 -2.796875q0 -1.625 1.28125 -2.71875q1.28125 -1.109375 3.96875 -1.109375q2.546875 0 3.78125 0.84375q1.25 0.828125 1.71875 2.453125l-3.109375 0.578125q-0.1875 -0.734375 -0.75 -1.109375q-0.5625 -0.390625 -1.59375 -0.390625q-1.296875 0 -1.859375 0.359375q-0.375 0.265625 -0.375 0.671875q0 0.34375 0.328125 0.59375q0.453125 0.328125 3.078125 0.9375q2.625 0.59375 3.671875 1.453125q1.03125 0.875 1.03125 2.453125q0 1.703125 -1.4375 2.9375q-1.421875 1.234375 -4.21875 1.234375q-2.546875 0 -4.03125 -1.03125q-1.484375 -1.03125 -1.9375 -2.796875z" fill-rule="nonzero"></path></g></svg>

